<svg width="500" height="235" viewBox="0 0 500 235" fill="none" xmlns="http://www.w3.org/2000/svg">
<g clip-path="url(#clip0_1_2)">
<path d="M500 0H0V235H500V0Z" fill="#B9121B"/>
<path d="M183.645 82.68C184.105 77.6733 184.335 71.2033 184.335 63.27C184.335 54.03 183.759 43.94 182.605 33C195.699 33.46 217.959 33.69 249.385 33.69C280.572 33.69 302.712 33.46 315.805 33C314.732 44.2467 314.195 54.3367 314.195 63.27C314.195 71.2033 314.425 77.6733 314.885 82.68H309.455C308.222 70.4333 306.662 61.3633 304.775 55.47C302.889 49.5767 299.579 45.2633 294.845 42.53C290.105 39.7967 282.845 38.43 273.065 38.43H260.245V173.02C260.245 179.567 260.859 184.36 262.085 187.4C263.319 190.447 265.552 192.547 268.785 193.7C272.025 194.853 277.149 195.547 284.155 195.78V200.52C275.835 200.053 264.245 199.82 249.385 199.82C233.592 199.82 221.922 200.053 214.375 200.52V195.78C221.382 195.547 226.505 194.853 229.745 193.7C232.979 192.547 235.212 190.447 236.445 187.4C237.672 184.36 238.285 179.567 238.285 173.02V38.43H225.465C215.685 38.43 208.425 39.7967 203.685 42.53C198.952 45.2633 195.642 49.5767 193.755 55.47C191.869 61.3633 190.309 70.4333 189.075 82.68H183.645Z" fill="white"/>
<path d="M434.53 97.2196H65V143.813H434.53V97.2196Z" fill="#B9121B"/>
<path d="M145.909 112.864C147.199 112.864 147.429 112.584 147.429 112.234C147.429 111.964 147.349 111.514 147.109 111.164C146.809 111.414 146.179 111.464 145.189 111.464H136.369C135.199 111.464 133.959 111.514 132.909 111.644C132.909 112.164 133.039 112.714 133.159 113.034C134.559 112.884 135.499 112.864 136.749 112.864H138.939C139.009 113.684 139.009 114.354 139.009 115.204V127.454C139.009 128.774 139.489 128.994 140.009 128.994C140.479 128.994 141.229 128.894 141.779 128.644C141.429 128.344 141.349 127.754 141.349 126.754V114.824C141.349 114.154 141.329 113.504 141.299 112.864H145.909Z" fill="white"/>
<path d="M155.899 127.454C155.899 128.774 156.319 128.994 156.839 128.994C157.259 128.994 157.989 128.894 158.509 128.644C158.259 128.344 158.239 127.754 158.239 126.754V121.774C158.709 121.754 159.179 121.754 159.699 121.754H161.249L164.829 127.404C165.629 128.794 166.329 128.994 166.899 128.994C167.419 128.994 168.099 128.894 168.539 128.644C168.019 128.324 167.569 127.704 166.929 126.684L163.559 121.424C165.929 120.704 167.399 118.884 167.399 116.494C167.399 113.504 165.029 111.464 161.519 111.464H157.889C156.939 111.494 156.039 111.594 155.649 111.694C155.849 113.114 155.899 114.034 155.899 115.274V127.454ZM158.189 112.864H161.319C163.509 112.864 165.009 114.404 165.009 116.644C165.009 118.834 163.559 120.354 161.419 120.354H159.329C158.959 120.354 158.579 120.354 158.239 120.384V114.904C158.239 114.234 158.209 113.534 158.189 112.864Z" fill="white"/>
<path d="M188.459 127.454C188.989 128.774 189.559 128.994 190.109 128.994C190.609 128.994 191.379 128.894 191.829 128.644C191.379 128.344 191.079 127.774 190.679 126.754L185.969 114.824C185.499 113.654 184.999 112.434 184.479 111.394C183.459 111.394 182.489 111.514 182.089 111.614C181.739 112.984 181.319 114.234 180.919 115.204L176.089 127.454C175.889 128.004 175.809 128.344 175.809 128.574C175.809 128.894 176.039 128.994 176.309 128.994C176.709 128.994 177.359 128.894 177.909 128.644C177.909 128.244 178.059 127.654 178.399 126.754L179.529 123.794H187.019L188.459 127.454ZM183.659 115.204L186.469 122.394H180.069L183.239 114.154C183.379 114.474 183.509 114.824 183.659 115.204Z" fill="white"/>
<path d="M206.569 111.464H202.159C201.159 111.464 200.169 111.594 199.739 111.694C199.939 113.114 199.989 114.034 199.989 115.274V127.674C199.989 128.194 200.089 128.744 200.219 129.074C201.639 128.924 202.559 128.894 203.799 128.894H206.219C211.099 128.894 214.359 125.284 214.359 119.984C214.359 114.904 211.219 111.464 206.569 111.464ZM202.329 126.754V114.904C202.329 114.234 202.309 113.534 202.279 112.864H206.339C209.629 112.864 211.849 115.844 211.849 120.234C211.849 124.534 209.679 127.504 206.469 127.504H203.429C203.059 127.504 202.679 127.504 202.329 127.524C202.309 127.304 202.329 127.054 202.329 126.754Z" fill="white"/>
<path d="M232.939 120.634C234.259 120.634 234.479 120.384 234.479 120.054C234.479 119.784 234.399 119.364 234.129 119.064C233.829 119.214 233.229 119.234 232.239 119.234H226.959C226.589 119.234 226.209 119.234 225.859 119.264V114.904C225.859 114.204 225.839 113.534 225.789 112.884C226.209 112.864 226.639 112.864 227.109 112.864H233.579C234.879 112.864 235.099 112.614 235.099 112.264C235.099 111.984 235.029 111.564 234.779 111.244C234.479 111.444 233.859 111.464 232.859 111.464H226.739C225.569 111.464 224.319 111.514 223.269 111.644C223.469 113.034 223.519 114.004 223.519 115.254V127.674C223.519 128.194 223.619 128.744 223.749 129.074C225.169 128.924 226.089 128.894 227.329 128.894H233.809C235.129 128.894 235.349 128.624 235.349 128.294C235.349 128.004 235.279 127.554 234.999 127.224C234.699 127.474 234.109 127.504 233.109 127.504H226.959C226.589 127.504 226.239 127.504 225.859 127.524V120.654C226.339 120.634 226.809 120.634 227.329 120.634H232.939Z" fill="white"/>
<path d="M254.399 128.894C255.719 128.894 255.919 128.624 255.919 128.294C255.919 128.004 255.839 127.554 255.589 127.224C255.299 127.474 254.699 127.504 253.699 127.504H247.799C247.429 127.504 247.079 127.504 246.709 127.524V114.824C246.709 113.654 246.659 112.414 246.529 111.364C245.559 111.364 244.539 111.494 244.119 111.614C244.309 113.034 244.359 113.954 244.359 115.204V127.674C244.359 128.194 244.459 128.744 244.589 129.074C246.009 128.924 246.929 128.894 248.169 128.894H254.399Z" fill="white"/>
<path d="M274.189 120.634C275.509 120.634 275.739 120.384 275.739 120.054C275.739 119.784 275.659 119.364 275.389 119.064C275.089 119.214 274.489 119.234 273.499 119.234H268.219C267.849 119.234 267.469 119.234 267.119 119.264V114.904C267.119 114.204 267.099 113.534 267.049 112.884C267.469 112.864 267.899 112.864 268.369 112.864H274.839C276.139 112.864 276.359 112.614 276.359 112.264C276.359 111.984 276.289 111.564 276.039 111.244C275.739 111.444 275.119 111.464 274.119 111.464H267.989C266.819 111.464 265.579 111.514 264.529 111.644C264.729 113.034 264.779 114.004 264.779 115.254V127.674C264.779 128.194 264.879 128.744 265.009 129.074C266.429 128.924 267.349 128.894 268.589 128.894H275.069C276.389 128.894 276.609 128.624 276.609 128.294C276.609 128.004 276.539 127.554 276.259 127.224C275.959 127.474 275.369 127.504 274.369 127.504H268.219C267.849 127.504 267.499 127.504 267.119 127.524V120.654C267.599 120.634 268.069 120.634 268.589 120.634H274.189Z" fill="white"/>
<path d="M297.399 127.454C297.919 128.774 298.499 128.994 299.049 128.994C299.539 128.994 300.309 128.894 300.759 128.644C300.309 128.344 300.019 127.774 299.619 126.754L294.909 114.824C294.439 113.654 293.939 112.434 293.419 111.394C292.399 111.394 291.429 111.514 291.029 111.614C290.679 112.984 290.259 114.234 289.859 115.204L285.029 127.454C284.829 128.004 284.749 128.344 284.749 128.574C284.749 128.894 284.979 128.994 285.249 128.994C285.649 128.994 286.299 128.894 286.839 128.644C286.839 128.244 286.989 127.654 287.339 126.754L288.459 123.794H295.959L297.399 127.454ZM292.599 115.204L295.409 122.394H289.009L292.169 114.154C292.319 114.474 292.449 114.824 292.599 115.204Z" fill="white"/>
<path d="M315.499 111.464H311.099C310.099 111.464 309.099 111.594 308.679 111.694C308.879 113.114 308.929 114.034 308.929 115.274V127.674C308.929 128.194 309.029 128.744 309.149 129.074C310.569 128.924 311.499 128.894 312.739 128.894H315.159C320.039 128.894 323.299 125.284 323.299 119.984C323.299 114.904 320.159 111.464 315.499 111.464ZM311.269 126.754V114.904C311.269 114.234 311.249 113.534 311.219 112.864H315.279C318.569 112.864 320.779 115.844 320.779 120.234C320.779 124.534 318.619 127.504 315.399 127.504H312.369C311.989 127.504 311.619 127.504 311.269 127.524C311.249 127.304 311.269 127.054 311.269 126.754Z" fill="white"/>
<path d="M341.869 120.634C343.189 120.634 343.419 120.384 343.419 120.054C343.419 119.784 343.339 119.364 343.069 119.064C342.769 119.214 342.169 119.234 341.179 119.234H335.899C335.519 119.234 335.149 119.234 334.799 119.264V114.904C334.799 114.204 334.779 113.534 334.729 112.884C335.149 112.864 335.569 112.864 336.049 112.864H342.519C343.819 112.864 344.039 112.614 344.039 112.264C344.039 111.984 343.959 111.564 343.719 111.244C343.419 111.444 342.789 111.464 341.799 111.464H335.669C334.499 111.464 333.259 111.514 332.209 111.644C332.409 113.034 332.459 114.004 332.459 115.254V127.674C332.459 128.194 332.559 128.744 332.679 129.074C334.099 128.924 335.029 128.894 336.269 128.894H342.739C344.059 128.894 344.289 128.624 344.289 128.294C344.289 128.004 344.209 127.554 343.939 127.224C343.639 127.474 343.039 127.504 342.049 127.504H335.899C335.519 127.504 335.169 127.504 334.799 127.524V120.654C335.269 120.634 335.749 120.634 336.269 120.634H341.869Z" fill="white"/>
<path d="M353.299 127.454C353.299 128.774 353.729 128.994 354.249 128.994C354.669 128.994 355.389 128.894 355.919 128.644C355.669 128.344 355.639 127.754 355.639 126.754V121.774C356.119 121.754 356.589 121.754 357.109 121.754H358.659L362.239 127.404C363.039 128.794 363.739 128.994 364.309 128.994C364.829 128.994 365.499 128.894 365.949 128.644C365.429 128.324 364.979 127.704 364.329 126.684L360.969 121.424C363.339 120.704 364.809 118.884 364.809 116.494C364.809 113.504 362.439 111.464 358.929 111.464H355.289C354.349 111.494 353.449 111.594 353.049 111.694C353.249 113.114 353.299 114.034 353.299 115.274V127.454ZM355.589 112.864H358.729C360.919 112.864 362.419 114.404 362.419 116.644C362.419 118.834 360.969 120.354 358.829 120.354H356.739C356.359 120.354 355.989 120.354 355.639 120.384V114.904C355.639 114.234 355.619 113.534 355.589 112.864Z" fill="white"/>
</g>
<defs>
<clipPath id="clip0_1_2">
<rect width="500" height="235" fill="white"/>
</clipPath>
</defs>
</svg>
