<svg width="500" height="215" viewBox="0 0 500 215" fill="none" xmlns="http://www.w3.org/2000/svg">
<g clip-path="url(#clip0_5_2)">
<path d="M500 -132H0V368H500V-132Z" fill="white"/>
<path d="M80.9572 146.137C79.0705 146.137 77.6539 146.617 76.7072 147.577C75.7672 148.537 75.0872 150.171 74.6672 152.477C74.6672 152.537 74.5838 152.567 74.4172 152.567C74.2505 152.567 74.1672 152.537 74.1672 152.477C74.2872 151.397 74.4238 149.987 74.5772 148.247C74.7238 146.507 74.7972 145.204 74.7972 144.337C74.7972 144.184 74.8805 144.107 75.0472 144.107C75.2138 144.107 75.2972 144.184 75.2972 144.337C75.2972 144.997 76.1038 145.327 77.7172 145.327C80.2705 145.414 83.2838 145.457 86.7572 145.457C88.5305 145.457 90.4072 145.427 92.3872 145.367L95.4472 145.327C96.5205 145.327 97.3205 145.251 97.8472 145.097C98.3738 144.951 98.7105 144.651 98.8572 144.197C98.8905 144.077 98.9805 144.017 99.1272 144.017C99.2805 144.017 99.3572 144.077 99.3572 144.197C99.2638 145.071 99.1738 146.391 99.0872 148.157C98.9938 149.931 98.9472 151.371 98.9472 152.477C98.9472 152.537 98.8572 152.567 98.6772 152.567C98.4972 152.567 98.4072 152.537 98.4072 152.477C98.3205 150.137 97.8405 148.494 96.9672 147.547C96.1005 146.607 94.6638 146.137 92.6572 146.137C91.3038 146.137 90.3438 146.197 89.7772 146.317C89.2038 146.437 88.8138 146.691 88.6072 147.077C88.3938 147.471 88.2872 148.131 88.2872 149.057V169.797C88.2872 170.724 88.3938 171.397 88.6072 171.817C88.8138 172.237 89.2172 172.521 89.8172 172.667C90.4172 172.821 91.3638 172.897 92.6572 172.897C92.7438 172.897 92.7872 172.987 92.7872 173.167C92.7872 173.347 92.7438 173.437 92.6572 173.437C91.6638 173.437 90.8672 173.421 90.2672 173.387L86.7572 173.347L83.3872 173.387C82.7872 173.421 81.9638 173.437 80.9172 173.437C80.8572 173.437 80.8272 173.347 80.8272 173.167C80.8272 172.987 80.8572 172.897 80.9172 172.897C82.2038 172.897 83.1472 172.821 83.7472 172.667C84.3472 172.521 84.7605 172.231 84.9872 171.797C85.2138 171.364 85.3272 170.697 85.3272 169.797V148.967C85.3272 148.041 85.2205 147.387 85.0072 147.007C84.8005 146.634 84.4105 146.397 83.8372 146.297C83.2705 146.191 82.3105 146.137 80.9572 146.137Z" fill="#002F2F"/>
<path d="M135.927 172.897C135.987 172.897 136.017 172.987 136.017 173.167C136.017 173.347 135.987 173.437 135.927 173.437H130.117C129.371 173.437 127.971 172.154 125.917 169.587C123.864 167.027 121.367 163.454 118.427 158.867C117.707 159.074 116.897 159.177 115.997 159.177C115.431 159.177 114.757 159.147 113.977 159.087V169.797C113.977 170.724 114.067 171.397 114.247 171.817C114.427 172.237 114.777 172.521 115.297 172.667C115.824 172.821 116.657 172.897 117.797 172.897C117.884 172.897 117.927 172.987 117.927 173.167C117.927 173.347 117.884 173.437 117.797 173.437C116.864 173.437 116.131 173.421 115.597 173.387L112.487 173.347L109.427 173.387C108.887 173.421 108.124 173.437 107.137 173.437C107.077 173.437 107.047 173.347 107.047 173.167C107.047 172.987 107.077 172.897 107.137 172.897C108.277 172.897 109.117 172.814 109.657 172.647C110.197 172.481 110.571 172.191 110.777 171.777C110.991 171.357 111.097 170.697 111.097 169.797V148.967C111.097 148.067 111.001 147.407 110.807 146.987C110.607 146.567 110.247 146.277 109.727 146.117C109.201 145.951 108.367 145.867 107.227 145.867C107.134 145.867 107.087 145.777 107.087 145.597C107.087 145.417 107.134 145.327 107.227 145.327L109.427 145.367C110.687 145.427 111.707 145.457 112.487 145.457C113.027 145.457 113.537 145.444 114.017 145.417C114.497 145.384 114.917 145.354 115.277 145.327C116.237 145.234 117.107 145.187 117.887 145.187C120.314 145.187 122.187 145.684 123.507 146.677C124.827 147.664 125.487 149.044 125.487 150.817C125.487 152.251 125.067 153.607 124.227 154.887C123.387 156.161 122.277 157.171 120.897 157.917C123.451 161.724 125.594 164.701 127.327 166.847C129.067 168.994 130.614 170.537 131.967 171.477C133.314 172.424 134.634 172.897 135.927 172.897ZM113.977 157.967C114.724 158.087 115.607 158.147 116.627 158.147C118.694 158.147 120.177 157.704 121.077 156.817C121.977 155.931 122.427 154.454 122.427 152.387C122.427 148.041 120.597 145.867 116.937 145.867C116.131 145.867 115.524 145.934 115.117 146.067C114.717 146.201 114.427 146.484 114.247 146.917C114.067 147.357 113.977 148.071 113.977 149.057V157.967Z" fill="#002F2F"/>
<path d="M171.137 172.897C171.257 172.897 171.317 172.987 171.317 173.167C171.317 173.347 171.257 173.437 171.137 173.437C170.571 173.437 169.687 173.407 168.487 173.347C167.287 173.287 166.417 173.257 165.877 173.257C165.217 173.257 164.377 173.287 163.357 173.347C162.397 173.407 161.664 173.437 161.157 173.437C161.037 173.437 160.977 173.347 160.977 173.167C160.977 172.987 161.037 172.897 161.157 172.897C162.264 172.897 163.074 172.791 163.587 172.577C164.094 172.371 164.347 172.014 164.347 171.507C164.347 171.087 164.154 170.441 163.767 169.567L158.587 158.547H150.087L146.227 167.727C145.807 168.747 145.597 169.587 145.597 170.247C145.597 172.014 147.064 172.897 149.997 172.897C150.151 172.897 150.227 172.987 150.227 173.167C150.227 173.347 150.151 173.437 149.997 173.437C149.457 173.437 148.677 173.407 147.657 173.347C146.524 173.287 145.537 173.257 144.697 173.257C143.917 173.257 143.017 173.287 141.997 173.347C141.097 173.407 140.347 173.437 139.747 173.437C139.594 173.437 139.517 173.347 139.517 173.167C139.517 172.987 139.594 172.897 139.747 172.897C140.587 172.897 141.301 172.741 141.887 172.427C142.467 172.114 143.021 171.557 143.547 170.757C144.074 169.964 144.651 168.817 145.277 167.317L154.767 144.917C154.827 144.831 154.934 144.787 155.087 144.787C155.234 144.787 155.324 144.831 155.357 144.917L165.967 167.277C166.987 169.497 167.857 170.987 168.577 171.747C169.297 172.514 170.151 172.897 171.137 172.897ZM154.097 149.057L150.497 157.607H158.137L154.097 149.057Z" fill="#002F2F"/>
<path d="M189.127 173.617C188.261 173.617 187.257 173.571 186.117 173.477C185.697 173.451 185.164 173.421 184.517 173.387C183.877 173.361 183.167 173.347 182.387 173.347L179.327 173.387C178.787 173.421 178.037 173.437 177.077 173.437C177.017 173.437 176.987 173.347 176.987 173.167C176.987 172.987 177.017 172.897 177.077 172.897C178.217 172.897 179.051 172.821 179.577 172.667C180.097 172.521 180.457 172.231 180.657 171.797C180.851 171.364 180.947 170.697 180.947 169.797V148.967C180.947 148.067 180.857 147.407 180.677 146.987C180.497 146.567 180.144 146.277 179.617 146.117C179.091 145.951 178.261 145.867 177.127 145.867C177.067 145.867 177.037 145.777 177.037 145.597C177.037 145.417 177.067 145.327 177.127 145.327L179.367 145.367C180.627 145.427 181.634 145.457 182.387 145.457C183.527 145.457 184.651 145.414 185.757 145.327C187.077 145.267 187.991 145.237 188.497 145.237C191.617 145.237 194.377 145.837 196.777 147.037C199.177 148.237 201.044 149.871 202.377 151.937C203.711 154.004 204.377 156.327 204.377 158.907C204.377 161.814 203.697 164.387 202.337 166.627C200.971 168.861 199.117 170.584 196.777 171.797C194.437 173.011 191.887 173.617 189.127 173.617ZM188.677 172.937C191.077 172.937 193.207 172.437 195.067 171.437C196.927 170.431 198.374 168.947 199.407 166.987C200.441 165.021 200.957 162.657 200.957 159.897C200.957 157.291 200.464 154.921 199.477 152.787C198.491 150.661 197.081 148.984 195.247 147.757C193.421 146.524 191.307 145.907 188.907 145.907C187.621 145.907 186.624 145.984 185.917 146.137C185.211 146.284 184.694 146.584 184.367 147.037C184.034 147.484 183.867 148.157 183.867 149.057V169.297C183.867 170.197 183.994 170.904 184.247 171.417C184.507 171.924 184.987 172.304 185.687 172.557C186.394 172.811 187.391 172.937 188.677 172.937Z" fill="#002F2F"/>
<path d="M232.177 166.737C232.177 166.677 232.237 166.647 232.357 166.647C232.444 166.647 232.527 166.661 232.607 166.687C232.68 166.721 232.717 166.767 232.717 166.827C232.444 168.714 232.307 170.691 232.307 172.757C232.307 172.997 232.257 173.171 232.157 173.277C232.05 173.384 231.86 173.437 231.587 173.437H212.747C212.687 173.437 212.657 173.347 212.657 173.167C212.657 172.987 212.687 172.897 212.747 172.897C213.887 172.897 214.717 172.821 215.237 172.667C215.764 172.521 216.124 172.231 216.317 171.797C216.517 171.364 216.617 170.697 216.617 169.797V148.967C216.617 148.067 216.517 147.407 216.317 146.987C216.124 146.567 215.764 146.277 215.237 146.117C214.717 145.951 213.887 145.867 212.747 145.867C212.687 145.867 212.657 145.777 212.657 145.597C212.657 145.417 212.687 145.327 212.747 145.327H230.827C231.094 145.327 231.227 145.461 231.227 145.727L231.317 151.267C231.317 151.354 231.244 151.404 231.097 151.417C230.944 151.437 230.854 151.401 230.827 151.307C230.734 149.721 230.254 148.484 229.387 147.597C228.52 146.711 227.367 146.267 225.927 146.267H223.177C222.13 146.267 221.36 146.351 220.867 146.517C220.367 146.684 220.02 146.967 219.827 147.367C219.634 147.774 219.537 148.384 219.537 149.197V158.327H225.027C226.467 158.327 227.494 158.087 228.107 157.607C228.72 157.127 229.027 156.317 229.027 155.177C229.027 155.117 229.117 155.087 229.297 155.087C229.477 155.087 229.567 155.117 229.567 155.177L229.517 158.817C229.517 159.691 229.534 160.351 229.567 160.797L229.607 162.957C229.607 163.017 229.517 163.047 229.337 163.047C229.157 163.047 229.067 163.017 229.067 162.957C229.067 161.637 228.747 160.694 228.107 160.127C227.46 159.554 226.387 159.267 224.887 159.267H219.537V169.617C219.537 170.457 219.627 171.071 219.807 171.457C219.987 171.851 220.317 172.121 220.797 172.267C221.277 172.414 222.027 172.487 223.047 172.487H226.647C228.08 172.487 229.277 171.981 230.237 170.967C231.197 169.947 231.844 168.537 232.177 166.737Z" fill="#002F2F"/>
<path d="M247.517 149.017V169.617C247.517 170.484 247.607 171.114 247.787 171.507C247.967 171.894 248.297 172.154 248.777 172.287C249.251 172.421 250.027 172.487 251.107 172.487H256.017C257.724 172.487 259.087 171.964 260.107 170.917C261.127 169.871 261.801 168.417 262.127 166.557C262.127 166.464 262.211 166.427 262.377 166.447C262.544 166.461 262.627 166.511 262.627 166.597C262.354 169.091 262.217 171.144 262.217 172.757C262.217 172.997 262.174 173.171 262.087 173.277C261.994 173.384 261.814 173.437 261.547 173.437H240.767C240.707 173.437 240.677 173.347 240.677 173.167C240.677 172.987 240.707 172.897 240.767 172.897C241.907 172.897 242.741 172.821 243.267 172.667C243.787 172.521 244.137 172.231 244.317 171.797C244.497 171.364 244.587 170.697 244.587 169.797V148.967C244.587 148.067 244.497 147.407 244.317 146.987C244.137 146.567 243.787 146.277 243.267 146.117C242.741 145.951 241.907 145.867 240.767 145.867C240.707 145.867 240.677 145.777 240.677 145.597C240.677 145.417 240.707 145.327 240.767 145.327L242.967 145.367C244.227 145.427 245.247 145.457 246.027 145.457C246.867 145.457 247.917 145.427 249.177 145.367L251.337 145.327C251.424 145.327 251.467 145.417 251.467 145.597C251.467 145.777 251.424 145.867 251.337 145.867C250.224 145.867 249.407 145.951 248.887 146.117C248.361 146.277 248.001 146.574 247.807 147.007C247.614 147.447 247.517 148.117 247.517 149.017Z" fill="#002F2F"/>
<path d="M288.757 166.737C288.757 166.677 288.817 166.647 288.937 166.647C289.031 166.647 289.114 166.661 289.187 166.687C289.261 166.721 289.297 166.767 289.297 166.827C289.031 168.714 288.897 170.691 288.897 172.757C288.897 172.997 288.844 173.171 288.737 173.277C288.631 173.384 288.444 173.437 288.177 173.437H269.327C269.267 173.437 269.237 173.347 269.237 173.167C269.237 172.987 269.267 172.897 269.327 172.897C270.467 172.897 271.301 172.821 271.827 172.667C272.347 172.521 272.707 172.231 272.907 171.797C273.101 171.364 273.197 170.697 273.197 169.797V148.967C273.197 148.067 273.101 147.407 272.907 146.987C272.707 146.567 272.347 146.277 271.827 146.117C271.301 145.951 270.467 145.867 269.327 145.867C269.267 145.867 269.237 145.777 269.237 145.597C269.237 145.417 269.267 145.327 269.327 145.327H287.407C287.681 145.327 287.817 145.461 287.817 145.727L287.907 151.267C287.907 151.354 287.831 151.404 287.677 151.417C287.531 151.437 287.441 151.401 287.407 151.307C287.321 149.721 286.841 148.484 285.967 147.597C285.101 146.711 283.947 146.267 282.507 146.267H279.757C278.711 146.267 277.941 146.351 277.447 146.517C276.954 146.684 276.607 146.967 276.407 147.367C276.214 147.774 276.117 148.384 276.117 149.197V158.327H281.607C283.047 158.327 284.074 158.087 284.687 157.607C285.301 157.127 285.607 156.317 285.607 155.177C285.607 155.117 285.697 155.087 285.877 155.087C286.057 155.087 286.147 155.117 286.147 155.177L286.107 158.817C286.107 159.691 286.121 160.351 286.147 160.797L286.197 162.957C286.197 163.017 286.107 163.047 285.927 163.047C285.747 163.047 285.657 163.017 285.657 162.957C285.657 161.637 285.334 160.694 284.687 160.127C284.041 159.554 282.967 159.267 281.467 159.267H276.117V169.617C276.117 170.457 276.207 171.071 276.387 171.457C276.567 171.851 276.897 172.121 277.377 172.267C277.857 172.414 278.607 172.487 279.627 172.487H283.227C284.667 172.487 285.867 171.981 286.827 170.967C287.787 169.947 288.431 168.537 288.757 166.737Z" fill="#002F2F"/>
<path d="M327.217 172.897C327.337 172.897 327.397 172.987 327.397 173.167C327.397 173.347 327.337 173.437 327.217 173.437C326.644 173.437 325.757 173.407 324.557 173.347C323.357 173.287 322.487 173.257 321.947 173.257C321.287 173.257 320.451 173.287 319.437 173.347C318.477 173.407 317.741 173.437 317.227 173.437C317.107 173.437 317.047 173.347 317.047 173.167C317.047 172.987 317.107 172.897 317.227 172.897C318.341 172.897 319.151 172.791 319.657 172.577C320.164 172.371 320.417 172.014 320.417 171.507C320.417 171.087 320.224 170.441 319.837 169.567L314.667 158.547H306.167L302.297 167.727C301.877 168.747 301.667 169.587 301.667 170.247C301.667 172.014 303.137 172.897 306.077 172.897C306.224 172.897 306.297 172.987 306.297 173.167C306.297 173.347 306.224 173.437 306.077 173.437C305.537 173.437 304.757 173.407 303.737 173.347C302.597 173.287 301.607 173.257 300.767 173.257C299.987 173.257 299.087 173.287 298.067 173.347C297.167 173.407 296.417 173.437 295.817 173.437C295.671 173.437 295.597 173.347 295.597 173.167C295.597 172.987 295.671 172.897 295.817 172.897C296.657 172.897 297.371 172.741 297.957 172.427C298.544 172.114 299.097 171.557 299.617 170.757C300.144 169.964 300.721 168.817 301.347 167.317L310.837 144.917C310.897 144.831 311.004 144.787 311.157 144.787C311.304 144.787 311.394 144.831 311.427 144.917L322.037 167.277C323.057 169.497 323.927 170.987 324.647 171.747C325.367 172.514 326.224 172.897 327.217 172.897ZM310.167 149.057L306.567 157.607H314.217L310.167 149.057Z" fill="#002F2F"/>
<path d="M345.207 173.617C344.334 173.617 343.327 173.571 342.187 173.477C341.767 173.451 341.237 173.421 340.597 173.387C339.951 173.361 339.237 173.347 338.457 173.347L335.397 173.387C334.857 173.421 334.107 173.437 333.147 173.437C333.087 173.437 333.057 173.347 333.057 173.167C333.057 172.987 333.087 172.897 333.147 172.897C334.287 172.897 335.121 172.821 335.647 172.667C336.174 172.521 336.534 172.231 336.727 171.797C336.921 171.364 337.017 170.697 337.017 169.797V148.967C337.017 148.067 336.927 147.407 336.747 146.987C336.567 146.567 336.217 146.277 335.697 146.117C335.171 145.951 334.337 145.867 333.197 145.867C333.137 145.867 333.107 145.777 333.107 145.597C333.107 145.417 333.137 145.327 333.197 145.327L335.447 145.367C336.707 145.427 337.711 145.457 338.457 145.457C339.597 145.457 340.721 145.414 341.827 145.327C343.147 145.267 344.064 145.237 344.577 145.237C347.697 145.237 350.454 145.837 352.847 147.037C355.247 148.237 357.114 149.871 358.447 151.937C359.787 154.004 360.457 156.327 360.457 158.907C360.457 161.814 359.774 164.387 358.407 166.627C357.041 168.861 355.187 170.584 352.847 171.797C350.514 173.011 347.967 173.617 345.207 173.617ZM344.757 172.937C347.157 172.937 349.284 172.437 351.137 171.437C352.997 170.431 354.447 168.947 355.487 166.987C356.521 165.021 357.037 162.657 357.037 159.897C357.037 157.291 356.541 154.921 355.547 152.787C354.561 150.661 353.151 148.984 351.317 147.757C349.491 146.524 347.377 145.907 344.977 145.907C343.691 145.907 342.694 145.984 341.987 146.137C341.281 146.284 340.764 146.584 340.437 147.037C340.111 147.484 339.947 148.157 339.947 149.057V169.297C339.947 170.197 340.074 170.904 340.327 171.417C340.581 171.924 341.061 172.304 341.767 172.557C342.467 172.811 343.464 172.937 344.757 172.937Z" fill="#002F2F"/>
<path d="M388.247 166.737C388.247 166.677 388.307 166.647 388.427 166.647C388.52 166.647 388.604 166.661 388.677 166.687C388.75 166.721 388.787 166.767 388.787 166.827C388.52 168.714 388.387 170.691 388.387 172.757C388.387 172.997 388.334 173.171 388.227 173.277C388.12 173.384 387.934 173.437 387.667 173.437H368.817C368.757 173.437 368.727 173.347 368.727 173.167C368.727 172.987 368.757 172.897 368.817 172.897C369.957 172.897 370.791 172.821 371.317 172.667C371.837 172.521 372.197 172.231 372.397 171.797C372.591 171.364 372.687 170.697 372.687 169.797V148.967C372.687 148.067 372.591 147.407 372.397 146.987C372.197 146.567 371.837 146.277 371.317 146.117C370.791 145.951 369.957 145.867 368.817 145.867C368.757 145.867 368.727 145.777 368.727 145.597C368.727 145.417 368.757 145.327 368.817 145.327H386.897C387.17 145.327 387.307 145.461 387.307 145.727L387.397 151.267C387.397 151.354 387.321 151.404 387.167 151.417C387.021 151.437 386.93 151.401 386.897 151.307C386.81 149.721 386.331 148.484 385.457 147.597C384.591 146.711 383.437 146.267 381.997 146.267H379.257C378.204 146.267 377.431 146.351 376.937 146.517C376.444 146.684 376.101 146.967 375.907 147.367C375.707 147.774 375.607 148.384 375.607 149.197V158.327H381.097C382.537 158.327 383.564 158.087 384.177 157.607C384.79 157.127 385.097 156.317 385.097 155.177C385.097 155.117 385.187 155.087 385.367 155.087C385.547 155.087 385.637 155.117 385.637 155.177L385.597 158.817C385.597 159.691 385.611 160.351 385.637 160.797L385.687 162.957C385.687 163.017 385.597 163.047 385.417 163.047C385.237 163.047 385.147 163.017 385.147 162.957C385.147 161.637 384.824 160.694 384.177 160.127C383.53 159.554 382.461 159.267 380.967 159.267H375.607V169.617C375.607 170.457 375.697 171.071 375.877 171.457C376.057 171.851 376.387 172.121 376.867 172.267C377.347 172.414 378.097 172.487 379.117 172.487H382.717C384.157 172.487 385.357 171.981 386.317 170.967C387.277 169.947 387.921 168.537 388.247 166.737Z" fill="#002F2F"/>
<path d="M425.987 172.897C426.047 172.897 426.077 172.987 426.077 173.167C426.077 173.347 426.047 173.437 425.987 173.437H420.187C419.434 173.437 418.031 172.154 415.977 169.587C413.924 167.027 411.427 163.454 408.487 158.867C407.767 159.074 406.957 159.177 406.057 159.177C405.491 159.177 404.817 159.147 404.037 159.087V169.797C404.037 170.724 404.127 171.397 404.307 171.817C404.487 172.237 404.841 172.521 405.367 172.667C405.887 172.821 406.717 172.897 407.857 172.897C407.951 172.897 407.997 172.987 407.997 173.167C407.997 173.347 407.951 173.437 407.857 173.437C406.931 173.437 406.197 173.421 405.657 173.387L402.547 173.347L399.497 173.387C398.957 173.421 398.191 173.437 397.197 173.437C397.137 173.437 397.107 173.347 397.107 173.167C397.107 172.987 397.137 172.897 397.197 172.897C398.337 172.897 399.177 172.814 399.717 172.647C400.257 172.481 400.634 172.191 400.847 171.777C401.054 171.357 401.157 170.697 401.157 169.797V148.967C401.157 148.067 401.061 147.407 400.867 146.987C400.674 146.567 400.314 146.277 399.787 146.117C399.261 145.951 398.427 145.867 397.287 145.867C397.201 145.867 397.157 145.777 397.157 145.597C397.157 145.417 397.201 145.327 397.287 145.327L399.497 145.367C400.757 145.427 401.774 145.457 402.547 145.457C403.087 145.457 403.597 145.444 404.077 145.417C404.557 145.384 404.977 145.354 405.337 145.327C406.297 145.234 407.167 145.187 407.947 145.187C410.381 145.187 412.254 145.684 413.567 146.677C414.887 147.664 415.547 149.044 415.547 150.817C415.547 152.251 415.127 153.607 414.287 154.887C413.447 156.161 412.341 157.171 410.967 157.917C413.514 161.724 415.657 164.701 417.397 166.847C419.137 168.994 420.681 170.537 422.027 171.477C423.374 172.424 424.694 172.897 425.987 172.897ZM404.037 157.967C404.784 158.087 405.667 158.147 406.687 158.147C408.761 158.147 410.247 157.704 411.147 156.817C412.041 155.931 412.487 154.454 412.487 152.387C412.487 148.041 410.661 145.867 407.007 145.867C406.194 145.867 405.587 145.934 405.187 146.067C404.781 146.201 404.487 146.484 404.307 146.917C404.127 147.357 404.037 148.071 404.037 149.057V157.967Z" fill="#002F2F"/>
<path d="M247.204 11.955C246.945 11.962 246.71 11.9883 246.5 12.0394C246.078 12.1417 245.709 12.3824 245.571 12.7717C245.434 13.161 245.525 13.5898 245.768 14.061C245.78 14.094 245.815 14.1338 245.838 14.1674C245.289 14.3437 244.714 14.5391 244.14 14.7338C243.536 14.6801 242.931 14.6255 242.358 14.5836C242.358 14.5468 242.382 14.5005 242.393 14.4647C242.51 13.9514 242.51 13.5119 242.277 13.166C242.052 12.8201 241.635 12.6746 241.2 12.6747C240.333 12.6747 239.182 13.1221 237.719 13.8732C237.436 14.0187 237.095 14.2301 236.791 14.3989C236.442 14.4059 236.039 14.3919 235.72 14.4082C234.078 14.4896 232.86 14.6784 232.108 15.1123C231.732 15.3293 231.445 15.6607 231.423 16.0731C231.412 16.4854 231.615 16.8701 231.973 17.256C231.996 17.2829 232.043 17.3131 232.066 17.3404C231.589 17.6646 231.092 18.0148 230.597 18.3638C230.002 18.4822 229.408 18.5989 228.845 18.7205C228.845 18.6824 228.845 18.6321 228.845 18.5954C228.81 18.0698 228.683 17.6496 228.37 17.3812C228.055 17.1128 227.616 17.0897 227.199 17.2122C226.366 17.457 225.388 18.2102 224.197 19.3433C223.967 19.5629 223.697 19.862 223.452 20.11C223.12 20.214 222.73 20.3179 222.43 20.4229C220.876 20.9639 219.76 21.4876 219.161 22.1159C218.862 22.43 218.681 22.8281 218.776 23.23C218.869 23.6319 219.185 23.94 219.637 24.2094C219.672 24.2289 219.718 24.2466 219.753 24.2657C219.386 24.7103 219.006 25.1846 218.63 25.6583C218.092 25.94 217.554 26.221 217.047 26.4969C217.047 26.4613 217.035 26.4121 217.012 26.3781C216.832 25.8828 216.588 25.5144 216.21 25.3454C215.834 25.1763 215.409 25.2795 215.044 25.5143C214.314 25.9839 213.589 26.9826 212.763 28.4058C212.604 28.6812 212.431 29.0416 212.267 29.3478C211.977 29.5418 211.632 29.7502 211.372 29.9362C210.034 30.8929 209.112 31.7087 208.713 32.4803C208.514 32.8661 208.45 33.3043 208.643 33.6632C208.848 34.0221 209.238 34.2269 209.748 34.3579C209.783 34.3673 209.841 34.3713 209.874 34.3798C209.648 34.9104 209.417 35.4734 209.187 36.0352C208.752 36.4562 208.317 36.8802 207.909 37.287C207.898 37.2544 207.863 37.2078 207.839 37.1775C207.528 36.7527 207.192 36.467 206.783 36.4108C206.374 36.3549 205.991 36.574 205.707 36.9021C205.139 37.5585 204.724 38.7213 204.334 40.3193C204.264 40.6296 204.193 41.0263 204.121 41.3678C203.898 41.6349 203.627 41.9304 203.43 42.1813C202.416 43.4765 201.758 44.5207 201.594 45.3733C201.512 45.7996 201.582 46.2349 201.872 46.5217C202.168 46.8087 202.6 46.8996 203.127 46.8816C203.162 46.8816 203.208 46.8688 203.25 46.8665C203.181 47.4381 203.122 48.0418 203.061 48.644C202.761 49.1712 202.462 49.6997 202.184 50.2055C202.149 50.181 202.115 50.1437 202.091 50.1216C201.673 49.8018 201.27 49.6253 200.862 49.6867C200.454 49.7484 200.151 50.0646 199.97 50.4596C199.61 51.2494 199.539 52.4807 199.614 54.1241C199.626 54.4424 199.684 54.8411 199.708 55.1881C199.568 55.5085 199.391 55.8704 199.272 56.1675C198.664 57.6961 198.33 58.8833 198.413 59.7476C198.46 60.1798 198.635 60.5793 199 60.7709C199.366 60.9624 199.808 60.9269 200.308 60.7593C200.342 60.7476 200.389 60.722 200.424 60.7092C200.517 61.2783 200.629 61.8771 200.741 62.4741C200.601 63.0637 200.464 63.6544 200.34 64.2172C200.305 64.2021 200.27 64.1741 200.224 64.1613C199.733 63.9721 199.294 63.9153 198.919 64.089C198.546 64.263 198.343 64.6513 198.282 65.081C198.158 65.9405 198.438 67.1428 198.972 68.6986C199.077 69.0008 199.237 69.3704 199.36 69.6968C199.325 70.0421 199.256 70.4375 199.219 70.7545C199.067 72.3926 199.078 73.6254 199.401 74.4316C199.562 74.8346 199.851 75.1676 200.255 75.2483C200.659 75.3287 201.071 75.1726 201.503 74.8728C201.538 74.8519 201.573 74.8146 201.596 74.7913C201.848 75.309 202.123 75.8502 202.395 76.3904C202.43 76.9966 202.465 77.6046 202.5 78.1804C202.465 78.1804 202.407 78.1617 202.375 78.1582C201.85 78.1151 201.415 78.1827 201.106 78.4555C200.795 78.7279 200.712 79.1587 200.774 79.5884C200.897 80.4479 201.503 81.523 202.454 82.8649C202.638 83.1254 202.896 83.4347 203.107 83.7128C203.165 84.0565 203.212 84.4547 203.27 84.7674C203.584 86.3824 203.944 87.5647 204.481 88.2473C204.747 88.5887 205.117 88.8253 205.528 88.7887C205.938 88.7526 206.288 88.4846 206.62 88.0752C206.643 88.0461 206.666 87.9995 206.69 87.9692C207.078 88.3949 207.495 88.836 207.909 89.2772C208.111 89.8488 208.312 90.4237 208.513 90.9641C208.478 90.9757 208.42 90.9756 208.388 90.9791C207.873 91.0852 207.474 91.275 207.253 91.6238C207.032 91.9726 207.075 92.4087 207.253 92.8036C207.613 93.5933 208.495 94.4535 209.786 95.4729C210.036 95.67 210.37 95.8922 210.65 96.0988C210.8 96.4148 210.956 96.7875 211.104 97.0721C211.859 98.5329 212.539 99.563 213.245 100.067C213.599 100.319 214.019 100.443 214.403 100.292C214.787 100.141 215.049 99.7831 215.25 99.2971C215.262 99.2633 215.262 99.2131 215.285 99.178C215.778 99.4772 216.302 99.7854 216.825 100.092C217.181 100.583 217.537 101.076 217.882 101.538C217.847 101.555 217.801 101.57 217.766 101.588C217.301 101.835 216.969 102.126 216.855 102.524C216.738 102.92 216.901 103.331 217.189 103.659C217.757 104.315 218.848 104.891 220.374 105.506C220.67 105.625 221.056 105.745 221.383 105.866C221.615 106.124 221.868 106.434 222.088 106.664C223.225 107.852 224.165 108.651 224.984 108.935C225.394 109.078 225.835 109.079 226.16 108.826C226.486 108.573 226.635 108.157 226.692 107.634C226.692 107.598 226.692 107.546 226.692 107.508C227.248 107.657 227.837 107.803 228.424 107.95C228.903 108.322 229.383 108.696 229.845 109.042C229.821 109.068 229.775 109.094 229.751 109.12C229.375 109.489 229.141 109.862 229.144 110.275C229.144 110.688 229.421 111.035 229.785 111.27C230.516 111.739 231.724 111.983 233.361 112.143C233.676 112.173 234.077 112.18 234.423 112.202C234.721 112.386 235.053 112.616 235.331 112.775C236.757 113.595 237.883 114.095 238.75 114.136C239.184 114.157 239.606 114.033 239.848 113.698C240.089 113.363 240.116 112.924 240.022 112.406C240.022 112.369 239.999 112.322 239.987 112.284C240.564 112.27 241.17 112.243 241.776 112.218C242.34 112.44 242.905 112.664 243.443 112.866C243.42 112.899 243.396 112.937 243.373 112.97C243.116 113.429 242.997 113.854 243.116 114.25C243.236 114.645 243.594 114.901 244.01 115.023C244.843 115.267 246.071 115.162 247.685 114.854C247.998 114.794 248.385 114.689 248.724 114.613C249.061 114.706 249.443 114.829 249.754 114.904C251.352 115.289 252.576 115.453 253.419 115.248C253.841 115.146 254.21 114.905 254.349 114.516C254.485 114.127 254.384 113.698 254.151 113.227C254.139 113.194 254.104 113.154 254.081 113.12C254.63 112.944 255.206 112.749 255.779 112.554C256.384 112.608 256.988 112.662 257.562 112.704C257.562 112.742 257.539 112.787 257.527 112.823C257.409 113.337 257.41 113.776 257.643 114.122C257.869 114.468 258.287 114.613 258.72 114.613C259.588 114.613 260.738 114.166 262.201 113.415C262.485 113.269 262.826 113.058 263.13 112.889C263.479 112.877 263.882 112.901 264.2 112.877C265.842 112.796 267.06 112.607 267.813 112.173C268.188 111.956 268.475 111.625 268.497 111.212C268.509 110.8 268.305 110.415 267.947 110.03C267.924 110.003 267.877 109.972 267.854 109.946C268.33 109.622 268.827 109.271 269.323 108.922C269.917 108.804 270.512 108.687 271.075 108.566C271.075 108.604 271.075 108.654 271.075 108.691C271.11 109.216 271.237 109.637 271.55 109.905C271.864 110.173 272.303 110.196 272.72 110.074C273.553 109.829 274.531 109.076 275.722 107.943C275.953 107.723 276.222 107.424 276.467 107.176C276.8 107.072 277.189 106.968 277.49 106.863C279.043 106.322 280.159 105.798 280.759 105.17C281.057 104.856 281.239 104.458 281.143 104.056C281.05 103.654 280.734 103.343 280.282 103.074C280.259 103.055 280.201 103.039 280.166 103.02C280.532 102.576 280.909 102.101 281.285 101.627C281.824 101.346 282.361 101.065 282.868 100.789C282.879 100.825 282.879 100.874 282.903 100.908C283.082 101.403 283.324 101.771 283.702 101.94C284.078 102.109 284.506 102.006 284.87 101.771C285.601 101.302 286.327 100.303 287.151 98.8798C287.311 98.6047 287.483 98.2437 287.649 97.9378C287.938 97.7438 288.283 97.5355 288.542 97.3496C289.88 96.3927 290.804 95.5739 291.201 94.8022C291.4 94.4163 291.464 93.9813 291.271 93.6225C291.067 93.2636 290.677 93.0556 290.167 92.9245C290.132 92.9129 290.085 92.9129 290.042 92.9059C290.268 92.3753 290.497 91.8123 290.727 91.2505C291.161 90.83 291.598 90.4083 292.006 90.002C292.018 90.0334 292.041 90.0788 292.076 90.1079C292.386 90.5326 292.724 90.8185 293.133 90.8746C293.542 90.9305 293.925 90.7085 294.208 90.3803C294.777 89.7239 295.191 88.5642 295.582 86.9661C295.652 86.6558 295.723 86.2592 295.795 85.9177C296.019 85.6505 296.29 85.3551 296.486 85.1041C297.5 83.809 298.154 82.7646 298.318 81.9122C298.4 81.4859 298.342 81.0505 298.043 80.7637C297.746 80.4768 297.315 80.3859 296.79 80.4038C296.755 80.4038 296.697 80.4166 296.664 80.419C296.734 79.8473 296.793 79.2437 296.855 78.6415C297.154 78.1143 297.454 77.5856 297.731 77.0799C297.754 77.1044 297.801 77.1416 297.824 77.1637C298.243 77.4835 298.646 77.6602 299.053 77.5988C299.462 77.537 299.765 77.2207 299.945 76.8257C300.306 76.0359 300.377 74.8017 300.301 73.1581C300.29 72.8396 300.231 72.4416 300.208 72.0942C300.348 71.7749 300.525 71.414 300.644 71.1178C301.252 69.5894 301.586 68.4022 301.503 67.5379C301.469 67.1057 301.277 66.7061 300.913 66.5145C300.547 66.3229 300.108 66.3584 299.608 66.5262C299.573 66.5378 299.526 66.5635 299.491 66.5763C299.398 66.0089 299.282 65.4124 299.172 64.8175C299.312 64.2265 299.453 63.6353 299.577 63.0714C299.611 63.0854 299.646 63.111 299.693 63.125C300.185 63.3141 300.623 63.3709 300.997 63.1972C301.372 63.0233 301.573 62.6318 301.636 62.202C301.759 61.3426 301.479 60.1433 300.944 58.5877C300.839 58.2856 300.68 57.9158 300.556 57.5893C300.591 57.2443 300.661 56.8487 300.696 56.5316C300.85 54.8937 300.837 53.6577 300.516 52.8515C300.355 52.4484 300.066 52.1187 299.662 52.0379C299.256 51.9575 298.846 52.1136 298.413 52.4135C298.389 52.4344 298.343 52.4717 298.319 52.495C298.067 51.9773 297.793 51.4361 297.518 50.8959C297.483 50.2897 297.448 49.6817 297.413 49.1059C297.448 49.1059 297.495 49.1246 297.535 49.1281C298.06 49.1712 298.499 49.1036 298.808 48.8308C299.119 48.5584 299.201 48.1245 299.14 47.6947C299.016 46.8354 298.408 45.7633 297.457 44.4214C297.273 44.1617 297.017 43.8536 296.806 43.5766C296.748 43.2317 296.701 42.8325 296.644 42.5189C296.33 40.904 295.97 39.7216 295.434 39.0389C295.166 38.6977 294.796 38.4609 294.386 38.4975C293.974 38.5336 293.624 38.8017 293.293 39.2111C293.27 39.2402 293.247 39.2868 293.224 39.3171C292.834 38.8902 292.416 38.4482 292 38.0058C291.799 37.4351 291.596 36.8619 291.396 36.3222C291.442 36.3106 291.489 36.3106 291.524 36.3071C292.04 36.2011 292.436 36.0113 292.657 35.6625C292.878 35.3137 292.837 34.8744 292.657 34.4796C292.296 33.6899 291.414 32.8296 290.123 31.8102C289.873 31.6121 289.537 31.3888 289.257 31.1813C289.108 30.8672 288.95 30.4971 288.803 30.2143C288.046 28.7534 287.37 27.7233 286.663 27.2195C286.311 26.9676 285.887 26.8432 285.504 26.9941C285.12 27.1451 284.861 27.5032 284.659 27.9893C284.648 28.0233 284.636 28.0727 284.624 28.1082C284.132 27.8083 283.606 27.5016 283.083 27.1944C282.728 26.7031 282.372 26.2104 282.028 25.7486C282.063 25.7316 282.109 25.716 282.144 25.6985C282.609 25.451 282.94 25.1598 283.054 24.7628C283.171 24.3659 283.007 23.9549 282.72 23.6269C282.151 22.9708 281.062 22.3949 279.536 21.7806C279.241 21.6614 278.855 21.5405 278.528 21.4207C278.296 21.1612 278.042 20.85 277.822 20.6196C276.685 19.431 275.746 18.635 274.926 18.3508C274.515 18.2087 274.076 18.2072 273.75 18.4603C273.424 18.7135 273.275 19.1292 273.218 19.6526C273.218 19.6892 273.218 19.7397 273.218 19.7777C272.661 19.6294 272.072 19.4832 271.484 19.3365C271.006 18.9645 270.525 18.5909 270.065 18.2444C270.088 18.219 270.135 18.1914 270.158 18.1661C270.533 17.7978 270.771 17.4244 270.769 17.0114C270.769 16.5985 270.493 16.2509 270.128 16.0163C269.397 15.547 268.188 15.3026 266.552 15.1432C266.234 15.1125 265.834 15.1032 265.485 15.0806C265.189 14.8972 264.859 14.6701 264.581 14.5111C263.156 13.6911 262.03 13.1914 261.163 13.1498C260.73 13.129 260.307 13.2532 260.066 13.5879C259.823 13.9227 259.798 14.3621 259.89 14.8804C259.89 14.917 259.913 14.9646 259.925 15.0024C259.348 15.0169 258.74 15.0432 258.134 15.0681C257.57 14.8464 257.004 14.6225 256.464 14.4203C256.476 14.3875 256.523 14.3494 256.534 14.317C256.791 13.8575 256.91 13.4325 256.791 13.0371C256.672 12.6417 256.313 12.3863 255.896 12.2641C255.063 12.0197 253.836 12.1248 252.22 12.4331C251.908 12.493 251.519 12.5977 251.179 12.6741C250.843 12.5817 250.46 12.4577 250.151 12.383C248.951 12.0943 247.966 11.932 247.192 11.9543L247.204 11.955ZM247.204 12.6935C247.788 12.6842 248.646 12.8021 249.66 13.0283C248.689 13.2834 247.645 13.5893 246.538 13.9359C246.503 13.8725 246.445 13.7937 246.411 13.7356C246.224 13.3563 246.216 13.1216 246.252 13.0159C246.287 12.9102 246.376 12.8224 246.662 12.753C246.805 12.7183 246.987 12.6969 247.204 12.6935ZM254.404 12.8844C254.97 12.8546 255.41 12.8879 255.692 12.9689C255.975 13.0518 256.06 13.14 256.093 13.2474C256.128 13.3548 256.104 13.5911 255.896 13.9609C255.861 14.0175 255.803 14.0933 255.761 14.1549C254.67 13.7556 253.643 13.4014 252.686 13.1003C253.333 12.988 253.92 12.9097 254.404 12.8844ZM241.192 13.407C241.487 13.407 241.59 13.4694 241.651 13.5635C241.721 13.6575 241.768 13.8888 241.674 14.302C241.651 14.3655 241.616 14.4566 241.604 14.5273C240.442 14.4515 239.356 14.4027 238.352 14.3834C239.63 13.7528 240.658 13.4072 241.205 13.407H241.192ZM251.166 13.4322C252.399 13.7776 253.765 14.2136 255.301 14.7716C255.176 14.9201 255.038 15.0741 254.882 15.241C253.654 15.3203 252.404 15.4145 251.116 15.5257C249.834 15.3532 248.588 15.2004 247.363 15.0626C247.215 14.8884 247.086 14.7257 246.969 14.5713C248.533 14.0866 249.918 13.7187 251.166 13.4322ZM261.128 13.8828C261.673 13.909 262.68 14.3012 263.925 14.9906C262.923 14.9619 261.835 14.9609 260.675 14.9813C260.663 14.9098 260.617 14.8169 260.605 14.7528C260.535 14.3356 260.593 14.1084 260.652 14.0175C260.721 13.9265 260.828 13.8688 261.12 13.8829L261.128 13.8828ZM246.216 14.8091C246.251 14.8522 246.286 14.9027 246.321 14.9468C246.195 14.9334 246.061 14.9161 245.936 14.903C246.029 14.874 246.125 14.8376 246.215 14.8091L246.216 14.8091ZM256.043 15.0438C256.136 15.0768 256.229 15.1166 256.319 15.1502C256.192 15.1572 256.056 15.1679 255.927 15.1753C255.962 15.1328 256.009 15.0855 256.044 15.0439L256.043 15.0438ZM238.452 15.1158C239.335 15.1349 240.312 15.1871 241.324 15.2504C241.254 15.4281 241.158 15.6157 241.053 15.8199C239.9 16.2418 238.727 16.6839 237.522 17.1531C236.243 17.3491 235.003 17.5533 233.788 17.7664C233.597 17.6414 233.428 17.5212 233.272 17.4065C234.635 16.5016 235.86 15.7546 236.976 15.1283C237.464 15.1214 237.908 15.1042 238.452 15.1158ZM235.422 15.1659C234.563 15.6841 233.647 16.2728 232.681 16.9183C232.623 16.867 232.548 16.8069 232.503 16.7587C232.214 16.4481 232.141 16.2261 232.146 16.1141C232.146 16.002 232.215 15.892 232.466 15.7449C232.938 15.4721 233.999 15.2596 235.422 15.1659ZM242.111 15.3004C242.204 15.3074 242.308 15.3185 242.404 15.3256C242.285 15.3677 242.159 15.4175 242.04 15.4601C242.063 15.4095 242.098 15.3498 242.11 15.3006L242.111 15.3004ZM244.213 15.4788C245.111 15.5598 246.032 15.6522 246.981 15.7574C247.028 15.8055 247.086 15.8614 247.129 15.9106C246.188 16.0107 245.246 16.1074 244.302 16.2204C243.357 16.3333 242.422 16.462 241.487 16.5866C241.522 16.5283 241.557 16.4587 241.592 16.402C242.49 16.0757 243.364 15.7691 244.215 15.4788H244.213ZM260.909 15.7135C262.546 15.6894 263.98 15.7274 265.258 15.8043C266.343 16.4831 267.531 17.2857 268.848 18.2545C268.687 18.3618 268.51 18.4704 268.313 18.5863C267.111 18.3158 265.881 18.0543 264.614 17.7977C263.435 17.2722 262.286 16.7747 261.154 16.2987C261.061 16.0882 260.979 15.8959 260.909 15.7135ZM260.122 15.729C260.133 15.778 260.156 15.838 260.191 15.8886C260.075 15.8402 259.951 15.786 259.836 15.7384C259.929 15.7349 260.035 15.7314 260.13 15.7291L260.122 15.729ZM258.014 15.8072C258.85 16.1374 259.707 16.4842 260.586 16.8524C260.61 16.9111 260.656 16.9831 260.68 17.0433C259.749 16.8739 258.819 16.7005 257.881 16.5426C256.941 16.3846 256.008 16.2431 255.071 16.0983C255.118 16.0517 255.176 15.9999 255.224 15.9543C256.181 15.8943 257.106 15.8454 258.009 15.8072H258.014ZM266.809 15.9136C268.222 16.0749 269.274 16.3385 269.733 16.6333C269.98 16.7924 270.032 16.9029 270.034 17.0151C270.034 17.1272 269.952 17.3475 269.649 17.6441C269.603 17.6894 269.52 17.7433 269.464 17.7911C268.531 17.1009 267.641 16.4718 266.809 15.9136ZM251.095 16.264C251.887 16.371 252.67 16.4708 253.474 16.5895C253.173 16.8577 252.87 17.1283 252.512 17.425C252.068 17.7924 251.575 18.1855 251.042 18.5986C250.53 18.1615 250.053 17.7435 249.628 17.3562C249.283 17.042 248.992 16.7597 248.702 16.4768C249.512 16.3966 250.298 16.3331 251.095 16.264ZM247.761 16.577C248.166 16.9862 248.611 17.419 249.136 17.8976C249.533 18.2582 249.979 18.6477 250.447 19.0492C248.985 20.1596 247.211 21.4301 245.098 22.867C242.708 21.9681 240.683 21.1544 238.999 20.4198C239.359 19.9197 239.701 19.4333 240 18.9897C240.397 18.4021 240.731 17.8766 241.027 17.3843C242.143 17.2328 243.262 17.0811 244.389 16.9462C245.517 16.8114 246.64 16.6931 247.761 16.577ZM254.413 16.7366C255.529 16.906 256.646 17.0769 257.766 17.2654C258.885 17.4538 259.996 17.6587 261.104 17.8632C261.377 18.3695 261.683 18.9088 262.052 19.5154C262.329 19.9721 262.648 20.4735 262.983 20.9894C261.268 21.6426 259.207 22.3589 256.778 23.1424C254.738 21.6061 253.025 20.2533 251.617 19.0742C252.101 18.6968 252.566 18.3287 252.979 17.9883C253.524 17.5364 253.991 17.1253 254.413 16.7366ZM240.088 17.5064C239.873 17.8496 239.654 18.1931 239.393 18.5797C239.072 19.0572 238.709 19.576 238.314 20.1225C237.699 19.8472 237.124 19.5798 236.608 19.3276C236.187 19.1234 235.828 18.9323 235.472 18.7425C236.227 18.4371 236.963 18.157 237.709 17.8663C238.5 17.7453 239.28 17.6198 240.088 17.5064ZM232.616 17.8444C232.651 17.8777 232.709 17.9139 232.76 17.9476C232.633 17.9705 232.497 17.9932 232.372 18.0165C232.453 17.9622 232.537 17.8979 232.616 17.8444ZM227.717 17.8696C227.787 17.8765 227.847 17.902 227.89 17.9384C227.971 18.0112 228.083 18.2195 228.109 18.6425C228.109 18.7069 228.109 18.8043 228.109 18.8772C226.973 19.1318 225.915 19.3919 224.947 19.6564C225.995 18.6917 226.885 18.0704 227.407 17.9165C227.55 17.875 227.649 17.863 227.724 17.8696H227.717ZM262.036 18.0291C262.837 18.181 263.612 18.3431 264.397 18.5016C265.126 18.8273 265.848 19.1435 266.586 19.4843C266.222 19.6569 265.851 19.8292 265.424 20.0132C264.895 20.2402 264.311 20.478 263.684 20.7235C263.316 20.1594 262.976 19.6256 262.678 19.1338C262.434 18.7352 262.234 18.3821 262.036 18.0291ZM233.619 18.5393C233.678 18.5733 233.745 18.6112 233.801 18.6457C232.927 19.0069 232.051 19.3631 231.177 19.7378C230.302 20.1126 229.44 20.499 228.575 20.8832C228.586 20.8183 228.61 20.7397 228.621 20.6766C229.39 20.1113 230.139 19.5705 230.873 19.0525C231.76 18.8768 232.672 18.7068 233.617 18.5393H233.619ZM269.48 18.7238C269.55 18.7799 269.635 18.8455 269.711 18.9023C269.59 18.8736 269.459 18.8432 269.336 18.8147C269.371 18.7845 269.441 18.7537 269.48 18.7238ZM274.371 18.9805C274.441 18.977 274.548 18.9947 274.688 19.0431C275.203 19.2219 276.061 19.884 277.065 20.8988C276.109 20.5884 275.065 20.2777 273.943 19.9693C273.943 19.8957 273.943 19.7964 273.943 19.7315C273.99 19.3102 274.108 19.1087 274.196 19.0399C274.243 19.0056 274.289 18.9833 274.369 18.9805L274.371 18.9805ZM234.596 19.1056C235.099 19.3844 235.65 19.6737 236.288 19.985C236.768 20.2194 237.309 20.4703 237.871 20.7235C236.78 22.2016 235.432 23.9188 233.81 25.8932C231.264 25.7048 229.091 25.4914 227.27 25.2611C227.474 24.6802 227.668 24.1185 227.83 23.6088C228.046 22.9317 228.216 22.3348 228.362 21.7781C229.391 21.318 230.421 20.8578 231.465 20.4106C232.509 19.9635 233.553 19.5328 234.596 19.1056ZM268.448 19.3685C269.379 19.58 270.279 19.7932 271.153 20.0101C271.865 20.5639 272.59 21.1406 273.333 21.7437C273.333 21.8067 273.356 21.8853 273.368 21.9502C272.521 21.5251 271.679 21.099 270.822 20.6829C269.966 20.267 269.111 19.8679 268.255 19.4655C268.313 19.4337 268.386 19.3998 268.442 19.3684L268.448 19.3685ZM229.104 19.4154C228.999 19.4897 228.893 19.5721 228.79 19.647C228.79 19.5928 228.814 19.5273 228.814 19.475C228.907 19.4552 229.008 19.4354 229.101 19.4155L229.104 19.4154ZM251.02 19.5344C252.367 20.6678 254.005 21.9653 255.927 23.421C254.434 23.895 252.654 24.4199 250.887 24.942C249.152 24.3368 247.399 23.7275 245.93 23.1832C247.921 21.8202 249.62 20.6027 251.02 19.5344ZM228.046 19.647C228.023 19.8397 227.988 20.0445 227.953 20.2698C226.964 21.0001 225.963 21.7557 224.941 22.5448C223.768 23.0934 222.637 23.6382 221.532 24.1847C221.313 24.1186 221.116 24.0537 220.933 23.9875C221.986 22.7345 222.951 21.6737 223.846 20.758C225.068 20.3822 226.454 20.0091 228.049 19.647H228.046ZM267.444 19.8912C268.464 20.3674 269.488 20.8469 270.508 21.3431C271.531 21.8395 272.541 22.3461 273.546 22.8546C273.665 23.4171 273.804 24.0214 273.988 24.7072C274.125 25.2243 274.293 25.7944 274.469 26.3845C272.637 26.5279 270.458 26.6367 267.904 26.7038C266.379 24.6554 265.115 22.8739 264.097 21.3463C264.671 21.1199 265.222 20.8974 265.714 20.686C266.366 20.4057 266.928 20.1454 267.444 19.8912ZM272.921 20.4607C273.014 20.4848 273.112 20.5086 273.202 20.5327C273.202 20.5849 273.214 20.6506 273.214 20.7048C273.109 20.6259 273.014 20.5387 272.917 20.4607H272.921ZM273.962 20.7392C275.538 21.1772 276.904 21.6133 278.11 22.0472C278.959 23.0047 279.872 24.1094 280.865 25.4113C280.68 25.4688 280.483 25.5279 280.261 25.5834C279.183 24.9845 278.076 24.3852 276.929 23.7809C275.946 22.9437 274.981 22.1418 274.027 21.365C274.004 21.1391 273.981 20.9319 273.957 20.7392H273.962ZM238.556 21.0271C240.168 21.735 242.105 22.5159 244.361 23.371C243.062 24.2467 241.5 25.2517 239.954 26.25C238.118 26.1591 236.263 26.0673 234.702 25.959C236.227 24.0912 237.513 22.4463 238.556 21.0271ZM222.359 21.2305C221.681 21.97 220.969 22.7919 220.224 23.6839C220.154 23.6499 220.064 23.6142 220.007 23.5807C219.644 23.3639 219.507 23.1735 219.483 23.0644C219.46 22.9552 219.483 22.8331 219.688 22.62C220.065 22.225 221.022 21.7211 222.359 21.2305ZM263.4 21.6155C264.374 23.0832 265.577 24.7895 267.013 26.7288C265.446 26.7628 263.591 26.7631 261.751 26.7664C260.255 25.6966 258.747 24.6197 257.491 23.6839C259.784 22.9374 261.755 22.2456 263.4 21.6155ZM227.492 22.1631C227.388 22.5524 227.273 22.9426 227.132 23.3866C226.959 23.9353 226.757 24.5348 226.532 25.1704C225.864 25.0794 225.239 24.9849 224.671 24.8888C224.212 24.8109 223.813 24.7292 223.416 24.6477C224.056 24.1419 224.684 23.6626 225.315 23.1739C226.038 22.8358 226.751 22.4986 227.492 22.1631ZM279.567 22.5918C280.879 23.1451 281.812 23.6973 282.17 24.1095C282.362 24.332 282.384 24.4523 282.354 24.5601C282.319 24.6679 282.177 24.8553 281.803 25.0546C281.745 25.085 281.651 25.1148 281.584 25.1453C280.882 24.2189 280.209 23.3627 279.567 22.5918ZM274.393 23.2771C275.12 23.6486 275.816 24.0242 276.524 24.3974C277.13 24.9148 277.734 25.4212 278.347 25.9558C277.948 26.0184 277.546 26.0816 277.083 26.1374C276.512 26.2063 275.884 26.2693 275.213 26.3283C275.018 25.6832 274.842 25.0755 274.694 24.5194C274.574 24.0684 274.484 23.6718 274.393 23.2771ZM245.195 23.687C246.533 24.1867 248.144 24.7476 249.708 25.2986C248.428 25.6719 246.951 26.0778 245.529 26.4753C244.055 26.4242 242.523 26.3795 241.189 26.3188C242.58 25.4141 244.014 24.4881 245.195 23.687ZM256.64 23.9624C257.781 24.8175 259.169 25.8077 260.512 26.7757C259.178 26.7722 257.645 26.7477 256.169 26.7288C254.769 26.2646 253.314 25.7883 252.056 25.355C253.644 24.8792 255.281 24.3978 256.64 23.9624ZM220.427 24.5915C220.473 24.6109 220.543 24.6286 220.59 24.6477C220.473 24.7048 220.354 24.7629 220.242 24.8199C220.312 24.7467 220.367 24.6638 220.427 24.5915ZM221.579 24.9732C221.649 24.991 221.722 25.0058 221.788 25.0233C221.05 25.6169 220.311 26.2068 219.576 26.8132C218.843 27.4195 218.124 28.0346 217.402 28.6471C217.402 28.5814 217.402 28.501 217.39 28.4375C217.972 27.6741 218.541 26.9422 219.104 26.2343C219.901 25.818 220.724 25.3981 221.579 24.9732ZM222.679 25.2454C223.24 25.3707 223.851 25.4932 224.548 25.6116C225.077 25.7009 225.662 25.7867 226.273 25.8713C225.642 27.597 224.833 29.6251 223.833 31.9767C221.338 32.5134 219.195 32.9237 217.385 33.216C217.42 32.6006 217.455 32.0081 217.455 31.4729C217.466 30.7633 217.455 30.1388 217.455 29.564C218.312 28.8331 219.173 28.1024 220.048 27.3797C220.923 26.6563 221.805 25.9494 222.684 25.2454H222.679ZM250.872 25.7117C251.8 26.0336 252.72 26.3551 253.724 26.6943C252.735 26.6763 251.901 26.6756 250.851 26.6505C249.802 26.6254 248.969 26.5857 247.98 26.5566C248.998 26.2658 249.932 25.9889 250.872 25.7117ZM227.017 25.9683C228.763 26.1928 230.843 26.4002 233.248 26.5848C232.248 27.7907 231.034 29.1943 229.832 30.5873C228.043 31.018 226.238 31.4557 224.708 31.7921C225.646 29.5687 226.416 27.6246 227.017 25.9683ZM215.729 25.9935C215.799 25.9782 215.862 25.9889 215.913 26.0124C216.018 26.0583 216.18 26.2272 216.323 26.6257C216.335 26.6868 216.358 26.784 216.382 26.8542C215.363 27.4184 214.421 27.9672 213.567 28.4939C214.301 27.2724 214.976 26.4266 215.437 26.1313C215.56 26.0516 215.652 26.0087 215.727 25.9936L215.729 25.9935ZM281.34 26.0436C281.398 26.1181 281.457 26.2029 281.513 26.2783C281.408 26.2163 281.284 26.1527 281.174 26.0905C281.22 26.0738 281.291 26.0609 281.34 26.0436ZM280.165 26.3691C281 26.8353 281.804 27.2941 282.582 27.7491C283.109 28.4811 283.642 29.2391 284.188 30.0272C284.188 30.0907 284.176 30.1713 284.164 30.2369C283.473 29.5909 282.786 28.9434 282.082 28.303C281.378 27.6621 280.668 27.038 279.959 26.4097C280.028 26.3958 280.102 26.3835 280.165 26.3691ZM279.057 26.5881C279.901 27.3329 280.747 28.0805 281.587 28.8444C282.427 29.6078 283.253 30.3801 284.075 31.1507C284.028 31.7243 284.005 32.3465 283.981 33.0565C283.97 33.5909 283.97 34.1844 283.97 34.7996C282.173 34.4212 280.051 33.9122 277.583 33.2568C276.696 30.8607 275.987 28.7952 275.441 27.0418C276.053 26.9864 276.642 26.9276 277.173 26.8634C277.878 26.7785 278.493 26.6866 279.059 26.5881H279.057ZM234.137 26.6538C235.559 26.7563 237.262 26.8386 238.918 26.9261C237.795 27.6455 236.492 28.4534 235.24 29.2356C233.813 29.6017 232.331 29.9855 231.036 30.3026C232.114 29.0445 233.228 27.7541 234.137 26.6538ZM240.153 26.9949C241.134 27.0426 242.109 27.0903 243.169 27.1327C242.214 27.3946 241.412 27.6304 240.399 27.9025C239.382 28.1748 238.57 28.3709 237.611 28.6222C238.509 28.0552 239.329 27.5266 240.153 26.9949ZM217.496 27.0856C217.427 27.1862 217.34 27.2972 217.261 27.3987C217.261 27.3448 217.249 27.2782 217.238 27.2265C217.319 27.1812 217.414 27.1312 217.496 27.0856ZM274.688 27.1046C275.209 28.787 275.887 30.7639 276.717 33.0285C275.206 32.6198 273.425 32.0978 271.66 31.5827C270.525 30.1333 269.377 28.6733 268.435 27.4206C270.844 27.3506 272.932 27.2457 274.688 27.1046ZM245.618 27.2141C247.327 27.2728 248.927 27.3376 250.833 27.383C252.739 27.4285 254.344 27.4386 256.056 27.4612C257.678 27.9993 259.195 28.5145 261.009 29.0948C262.824 29.6752 264.359 30.137 265.992 30.6407C267.399 31.6155 268.71 32.5377 270.29 33.6073C271.869 34.6768 273.213 35.551 274.64 36.4957C275.717 37.8268 276.712 39.081 277.924 40.5514C279.138 42.0223 280.181 43.2391 281.284 44.5476C281.941 46.1282 282.545 47.6135 283.295 49.3669C284.047 51.1204 284.704 52.5821 285.393 54.1486C285.579 55.85 285.741 57.4434 285.967 59.337C286.193 61.2328 286.41 62.8234 286.633 64.5224C286.331 66.2064 286.039 67.7811 285.722 69.6608C285.406 71.5386 285.169 73.12 284.903 74.8086C284.137 76.3424 283.413 77.7749 282.579 79.4932C281.746 81.2095 281.071 82.6643 280.339 84.2123C279.176 85.4661 278.077 86.6322 276.795 88.0427C275.514 89.4534 274.457 90.6574 273.32 91.9357C271.85 92.8114 270.467 93.6243 268.839 94.6175C267.212 95.6092 265.859 96.4657 264.41 97.3713C262.751 97.7971 261.196 98.1852 259.353 98.6794C257.511 99.1731 255.97 99.6146 254.322 100.075C252.614 100.016 251.014 99.9516 249.108 99.9062C247.202 99.8607 245.599 99.8502 243.888 99.8281C242.264 99.2897 240.746 98.7754 238.931 98.1946C237.116 97.6142 235.582 97.1523 233.948 96.6486C232.541 95.6739 231.23 94.7516 229.65 93.682C228.071 92.6126 226.727 91.7382 225.301 90.7936C224.225 89.4625 223.23 88.2082 222.016 86.7378C220.8 85.2657 219.758 84.048 218.653 82.7385C217.996 81.1585 217.393 79.6752 216.642 77.9225C215.892 76.171 215.235 74.7119 214.547 73.147C214.361 71.4434 214.201 69.8455 213.973 67.9491C213.749 66.0539 213.53 64.4655 213.307 62.767C213.61 61.0829 213.902 59.5083 214.218 57.6285C214.534 55.7507 214.773 54.1693 215.037 52.4807C215.802 50.9469 216.527 49.5144 217.361 47.7961C218.194 46.0809 218.867 44.6272 219.598 43.0801C220.762 41.8254 221.862 40.6583 223.145 39.2466C224.428 37.8341 225.485 36.6271 226.623 35.3474C228.092 34.4723 229.474 33.664 231.102 32.6717C232.727 31.6802 234.077 30.8233 235.528 29.918C237.187 29.4919 238.744 29.1042 240.589 28.6098C242.43 28.116 243.971 27.6747 245.618 27.2141ZM267.544 27.4488C268.398 28.5911 269.45 29.9333 270.468 31.2416C269.188 30.8623 267.723 30.4057 266.311 29.9711C265.101 29.1324 263.841 28.2659 262.754 27.4957C264.413 27.4876 266.118 27.4833 267.544 27.4488ZM258.504 27.4989C259.563 27.507 260.536 27.5059 261.517 27.5059C262.313 28.0746 263.106 28.6388 263.972 29.2458C263.029 28.9501 262.23 28.717 261.232 28.3977C260.232 28.0782 259.446 27.8055 258.504 27.4989ZM216.546 27.6084C216.581 27.7999 216.604 28.0066 216.627 28.2343C215.883 29.2156 215.131 30.2223 214.372 31.2697C213.404 32.1257 212.472 32.9665 211.566 33.8014C211.338 33.7979 211.131 33.7921 210.938 33.7795C211.596 32.2801 212.224 30.9895 212.823 29.8584C213.892 29.1528 215.116 28.4057 216.546 27.6084ZM285.963 27.6678C286.033 27.6862 286.124 27.7326 286.245 27.818C286.689 28.135 287.329 29.0117 288.005 30.2683C287.176 29.7009 286.259 29.1098 285.27 28.4971C285.293 28.4276 285.317 28.3319 285.34 28.2718C285.503 27.8805 285.673 27.7182 285.777 27.6771C285.835 27.6566 285.894 27.6492 285.963 27.6678ZM284.146 28.6755C284.227 28.7252 284.322 28.7761 284.402 28.8257C284.39 28.8774 284.39 28.9439 284.367 28.9978C284.297 28.8927 284.218 28.7796 284.146 28.6755ZM285.072 29.2387C286.461 30.1031 287.648 30.9083 288.681 31.664C289.228 32.8219 289.791 34.1412 290.376 35.6696C290.182 35.6731 289.977 35.6731 289.748 35.6626C288.883 34.7849 287.993 33.8982 287.064 32.9964C286.356 31.9158 285.656 30.875 284.959 29.8608C284.994 29.6334 285.029 29.4287 285.075 29.238L285.072 29.2387ZM216.723 30.1776C216.723 30.5822 216.735 30.9881 216.723 31.4543C216.711 32.03 216.688 32.6618 216.653 33.335C215.988 33.4361 215.36 33.5239 214.789 33.5917C214.328 33.6464 213.922 33.6803 213.519 33.7138C213.989 33.048 214.457 32.412 214.926 31.7642C215.525 31.2354 216.115 30.7089 216.731 30.1776H216.723ZM233.151 30.5343C232.311 31.0525 231.614 31.5014 230.721 32.0458C229.825 32.5917 229.103 33.0066 228.256 33.5166C228.953 32.723 229.589 31.9877 230.229 31.2478C231.181 31.018 232.126 30.7915 233.151 30.5343ZM211.537 30.7284C211.095 31.63 210.639 32.6213 210.174 33.6887C210.104 33.6745 210.002 33.6675 209.94 33.6512C209.529 33.5458 209.347 33.3982 209.292 33.3007C209.234 33.2032 209.222 33.0804 209.362 32.8187C209.613 32.3334 210.391 31.5766 211.537 30.7284ZM268.335 31.3667C269.35 31.6734 270.286 31.9485 271.228 32.2241C271.834 32.9951 272.435 33.7624 273.095 34.59C272.272 34.0393 271.569 33.5892 270.699 33.0003C269.831 32.4116 269.152 31.9264 268.335 31.3667ZM229.024 31.5295C228.151 32.5351 227.13 33.6761 226.151 34.7778C224.883 35.5319 223.57 36.3206 222.416 36.9901C223.097 35.4779 223.8 33.9244 224.361 32.6122C225.755 32.3095 227.412 31.9121 229.024 31.5295ZM284.771 31.7985C285.363 32.3586 285.925 32.9099 286.498 33.4665C286.936 34.1363 287.374 34.7939 287.812 35.4819C287.41 35.4292 287.008 35.3771 286.548 35.3003C285.981 35.2054 285.358 35.0888 284.697 34.9561C284.697 34.2818 284.697 33.6511 284.708 33.0754C284.72 32.6092 284.743 32.2024 284.778 31.7985H284.771ZM272.417 32.5622C274.009 33.0212 275.646 33.4983 277.024 33.8671C277.521 35.2048 278.155 36.7893 278.763 38.3327C277.642 37.609 276.368 36.7586 275.139 35.945C274.211 34.7969 273.243 33.6092 272.417 32.5622ZM289.927 32.5964C291.03 33.4982 291.77 34.2902 291.997 34.7869C292.118 35.0548 292.102 35.1773 292.043 35.272C291.974 35.3667 291.792 35.5054 291.377 35.5912C291.307 35.6043 291.215 35.6057 291.143 35.6164C290.729 34.5283 290.321 33.518 289.923 32.5965L289.927 32.5964ZM223.488 32.7967C222.87 34.2357 222.098 35.9245 221.336 37.6003C219.741 38.5179 218.134 39.4467 216.761 40.2007C217.034 37.8038 217.226 35.722 217.337 33.9639C219.075 33.6872 221.129 33.2973 223.488 32.7967ZM216.595 34.0798C216.477 35.9127 216.273 38.0857 215.976 40.6232C213.731 41.8426 211.79 42.842 210.133 43.6337C209.991 43.0349 209.85 42.4571 209.711 41.9407C209.528 41.2571 209.348 40.6619 209.17 40.1163C209.787 39.1721 210.407 38.2257 211.043 37.2842C211.679 36.3436 212.327 35.4161 212.974 34.4928C213.546 34.455 214.167 34.4009 214.869 34.3175C215.399 34.2546 215.988 34.1704 216.595 34.0798ZM277.887 34.0922C280.221 34.7049 282.252 35.1943 283.978 35.5537C284.001 37.315 284.097 39.402 284.256 41.8092C282.919 40.9901 281.355 39.9861 279.805 38.9928C279.124 37.2834 278.438 35.5586 277.887 34.0922ZM210.622 34.5022C210.68 34.5069 210.742 34.5069 210.796 34.5115C210.703 34.5987 210.601 34.6877 210.509 34.7744C210.544 34.6868 210.578 34.5888 210.625 34.5021L210.622 34.5022ZM212.053 34.5333C211.513 35.3107 210.971 36.0854 210.438 36.8742C209.903 37.6627 209.387 38.4548 208.867 39.2461C208.844 39.1844 208.82 39.1059 208.797 39.0459C209.14 38.1523 209.478 37.2899 209.818 36.4547C210.467 35.8284 211.141 35.1935 211.844 34.5427C211.914 34.5392 211.987 34.5344 212.053 34.5333ZM284.712 35.7037C285.315 35.8233 285.898 35.9348 286.427 36.0229C287.128 36.1402 287.743 36.2238 288.315 36.2889C288.916 37.2414 289.518 38.1986 290.107 39.1678C290.698 40.137 291.269 41.1104 291.841 42.0813C291.636 42.6185 291.432 43.2055 291.214 43.8808C291.052 44.3899 290.884 44.9605 290.714 45.5517C289.097 44.6824 287.205 43.5936 285.022 42.269C284.846 39.7212 284.743 37.5399 284.712 35.7037ZM289.228 36.3734C289.297 36.3734 289.377 36.3886 289.441 36.392C290.111 37.0741 290.754 37.7398 291.371 38.3949C291.671 39.2457 291.967 40.1237 292.266 41.033C292.243 41.0912 292.208 41.1668 292.184 41.2269C291.703 40.4126 291.226 39.5982 290.73 38.786C290.235 37.9735 289.73 37.1748 289.226 36.3733L289.228 36.3734ZM290.482 36.4072C290.541 36.4072 290.605 36.4072 290.658 36.4072C290.693 36.4957 290.728 36.596 290.763 36.6857C290.67 36.5948 290.577 36.4991 290.487 36.4072H290.482ZM224.518 36.6074C223.856 37.344 223.31 37.9739 222.604 38.7511C221.897 39.5293 221.32 40.1336 220.648 40.8635C221.098 39.9022 221.502 39.015 221.91 38.1221C222.759 37.6323 223.604 37.1446 224.518 36.6074ZM206.695 37.1364C206.812 37.1516 207.012 37.267 207.262 37.6088C207.297 37.6624 207.343 37.7526 207.384 37.8155C206.567 38.6431 205.816 39.4322 205.145 40.178C205.506 38.799 205.917 37.7962 206.274 37.3836C206.467 37.1609 206.586 37.1211 206.695 37.1364ZM208.518 37.7216C208.471 37.8402 208.424 37.968 208.375 38.0876C208.352 38.0375 208.329 37.9758 208.305 37.928C208.375 37.8605 208.451 37.7891 208.519 37.7216H208.518ZM276.684 37.853C277.57 38.4327 278.392 38.9571 279.216 39.4865C279.58 40.3979 279.941 41.3057 280.342 42.2873C279.707 41.5262 279.16 40.8952 278.491 40.0843C277.823 39.275 277.308 38.6194 276.684 37.853ZM207.75 38.4883C207.831 38.6632 207.92 38.8526 208.007 39.0641C207.568 40.2154 207.133 41.3939 206.699 42.6127C206.009 43.7077 205.35 44.7762 204.716 45.8329C204.498 45.8958 204.298 45.9471 204.109 45.9893C204.318 44.3669 204.555 42.9526 204.813 41.699C205.639 40.7208 206.603 39.6561 207.75 38.4883ZM220.833 38.7324C220.276 39.945 219.616 41.3283 218.984 42.6628C217.981 43.7438 216.944 44.8716 216.026 45.839C216.253 44.1954 216.492 42.5065 216.661 41.0887C217.914 40.405 219.392 39.5545 220.833 38.7324ZM294.455 39.2268C294.572 39.2151 294.682 39.2606 294.864 39.4928C295.202 39.9217 295.564 40.9408 295.859 42.3342C295.225 41.5587 294.513 40.7351 293.739 39.8714C293.773 39.8108 293.832 39.7221 293.87 39.6711C294.137 39.3415 294.343 39.2367 294.455 39.2268ZM292.606 39.7242C292.676 39.7953 292.746 39.87 292.809 39.9403C292.786 39.9869 292.751 40.0486 292.727 40.0967C292.692 39.9751 292.647 39.8449 292.606 39.7242ZM280.258 40.1468C281.658 41.0369 283.096 41.9545 284.315 42.6972C284.419 44.1212 284.576 45.8203 284.725 47.4727C283.852 46.4615 282.868 45.2872 281.916 44.1586C281.35 42.7966 280.757 41.3839 280.258 40.1468ZM293.335 40.5255C294.426 41.7473 295.34 42.8539 296.119 43.8708C296.317 45.1354 296.488 46.5615 296.62 48.1924C296.432 48.1412 296.233 48.0806 296.015 48.0077C295.434 46.9228 294.828 45.8229 294.192 44.6969C293.817 43.4592 293.437 42.2624 293.055 41.0919C293.148 40.8837 293.243 40.697 293.335 40.5255ZM208.648 40.9041C208.767 41.2907 208.883 41.6806 209.005 42.1309C209.154 42.6868 209.307 43.2989 209.461 43.9552C208.851 44.2398 208.272 44.4989 207.744 44.725C207.316 44.9077 206.938 45.0552 206.561 45.2008C206.826 44.4275 207.096 43.6843 207.365 42.9288C207.791 42.2541 208.206 41.5862 208.648 40.9041ZM215.875 41.5112C215.687 43.0666 215.425 44.9054 215.166 46.7279C213.894 48.0578 212.611 49.4008 211.506 50.5112C211.095 48.134 210.691 46.0832 210.302 44.3652C211.894 43.6093 213.753 42.6568 215.875 41.5112ZM203.825 42.8974C203.654 43.8862 203.497 44.9641 203.353 46.1176C203.283 46.1293 203.181 46.1467 203.114 46.1491C202.691 46.163 202.477 46.0733 202.395 45.9957C202.314 45.9177 202.271 45.8029 202.325 45.5138C202.43 44.9777 202.963 44.0341 203.824 42.8976L203.825 42.8974ZM292.328 42.8974C292.738 43.601 293.12 44.2896 293.514 44.9849C293.746 45.7508 293.981 46.5047 294.208 47.288C293.839 47.1247 293.467 46.9591 293.048 46.756C292.529 46.5047 291.964 46.2185 291.369 45.9049C291.553 45.2569 291.737 44.6534 291.912 44.1055C292.054 43.662 292.191 43.2777 292.328 42.8974ZM285.081 43.1604C287.146 44.4048 288.958 45.4437 290.511 46.2741C290.041 47.9722 289.541 50.0015 289.015 52.3576C287.965 51.1961 286.748 49.7937 285.541 48.4052C285.369 46.5721 285.197 44.7234 285.081 43.1604ZM209.623 44.6844C210.026 46.4769 210.442 48.621 210.872 51.1403C209.063 52.9419 207.482 54.4455 206.114 55.6716C205.809 55.1361 205.512 54.6234 205.232 54.1663C204.862 53.5604 204.521 53.0386 204.196 52.5641C204.523 51.4857 204.852 50.4033 205.198 49.3222C205.543 48.2399 205.903 47.1704 206.264 46.102C206.804 45.9042 207.379 45.6763 208.031 45.3979C208.522 45.1878 209.065 44.9429 209.623 44.6844ZM217.934 44.8784C217.507 45.7715 217.161 46.5312 216.702 47.4758C216.243 48.4218 215.861 49.1648 215.423 50.0544C215.581 49.005 215.719 48.038 215.857 47.0659C216.534 46.3565 217.208 45.6514 217.934 44.8784ZM297.051 45.1193C297.856 46.2939 298.343 47.2614 298.421 47.8012C298.456 48.0927 298.421 48.206 298.328 48.28C298.246 48.3534 298.022 48.4336 297.601 48.3988C297.531 48.3988 297.44 48.3686 297.368 48.3581C297.274 47.1991 297.172 46.115 297.047 45.1192L297.051 45.1193ZM205.391 46.3993C205.091 47.2976 204.791 48.1928 204.501 49.1C204.21 50.0071 203.939 50.9132 203.662 51.8193C203.627 51.7657 203.58 51.6985 203.537 51.6472C203.607 50.6926 203.697 49.7692 203.788 48.8715C204.234 48.0886 204.701 47.2893 205.191 46.4682C205.261 46.4495 205.328 46.4191 205.391 46.3993ZM282.861 46.425C283.548 47.2316 284.188 47.9685 284.831 48.7094C284.924 49.6856 285.016 50.6564 285.124 51.7105C284.73 50.8023 284.383 50.044 283.971 49.0786C283.557 48.1127 283.245 47.3379 282.861 46.425ZM291.173 46.6284C291.72 46.9132 292.247 47.1837 292.728 47.417C293.368 47.7268 293.934 47.9789 294.464 48.2024C294.773 49.2869 295.082 50.375 295.374 51.4726C295.668 52.5687 295.945 53.6629 296.219 54.7553C295.872 55.2144 295.508 55.7188 295.109 56.3075C294.809 56.7504 294.485 57.2489 294.154 57.7689C292.848 56.4792 291.341 54.9009 289.619 53.0153C290.169 50.5207 290.686 48.3991 291.173 46.6284ZM204.178 46.7344C204.108 46.8428 204.044 46.9556 203.981 47.0629C203.981 46.9697 203.993 46.8671 204.016 46.775C204.062 46.7634 204.132 46.7459 204.182 46.7343L204.178 46.7344ZM215 47.9548C214.808 49.2756 214.563 50.79 214.335 52.2483C213.675 53.5688 212.994 54.9413 212.384 56.1288C212.141 54.4885 211.897 52.801 211.66 51.3939C212.67 50.3842 213.848 49.1508 215 47.9548ZM295.318 48.5431C295.388 48.5664 295.455 48.6002 295.515 48.6211C295.966 49.4636 296.396 50.2819 296.804 51.084C296.85 51.9865 296.885 52.9132 296.92 53.8722C296.885 53.9211 296.827 53.984 296.79 54.0349C296.557 53.1175 296.328 52.2003 296.083 51.2811C295.837 50.3616 295.576 49.4542 295.319 48.5428L295.318 48.5431ZM296.51 48.9312C296.568 48.9451 296.627 48.9685 296.679 48.9813C296.679 49.0757 296.679 49.1805 296.691 49.2755C296.621 49.1636 296.565 49.0443 296.507 48.9312H296.51ZM285.651 49.6385C286.743 50.8867 287.862 52.1751 288.822 53.231C288.518 54.6256 288.189 56.3008 287.868 57.9282C287.317 56.7127 286.705 55.3077 286.11 53.9569C285.95 52.49 285.779 50.9664 285.651 49.6385ZM200.984 50.4082C201.101 50.3919 201.323 50.4455 201.66 50.7024C201.707 50.742 201.779 50.8166 201.835 50.8652C201.286 51.887 200.786 52.8537 200.353 53.7566C200.306 52.3352 200.423 51.2576 200.65 50.7619C200.772 50.4939 200.874 50.425 200.984 50.4082ZM202.895 50.4618C202.895 50.5858 202.872 50.7187 202.86 50.8436C202.825 50.804 202.79 50.7527 202.744 50.7153C202.779 50.6338 202.837 50.5442 202.887 50.4618H202.895ZM202.38 51.41C202.509 51.5543 202.641 51.7136 202.783 51.892C202.69 53.1201 202.603 54.3742 202.529 55.666C202.177 56.9093 201.849 58.1208 201.538 59.3117C201.346 59.4338 201.166 59.5397 200.997 59.634C200.74 58.0153 200.571 56.5897 200.466 55.3124C200.982 54.1414 201.609 52.8531 202.38 51.41ZM211.025 52.0202C211.281 53.5658 211.548 55.4032 211.812 57.2245C210.966 58.8583 210.115 60.5075 209.367 61.884C208.302 59.7198 207.337 57.8645 206.481 56.3263C207.793 55.153 209.311 53.7171 211.025 52.0202ZM297.617 52.7118C297.652 52.798 297.71 52.8925 297.749 52.9778C297.714 53.0139 297.667 53.0652 297.63 53.1031C297.63 52.975 297.629 52.8389 297.617 52.7118ZM299.528 52.7561C299.644 52.7783 299.738 52.8516 299.847 53.1254C300.051 53.6324 300.111 54.7167 300.001 56.139C299.61 55.2143 299.161 54.2219 298.658 53.1722C298.717 53.1268 298.787 53.0558 298.84 53.0189C299.189 52.7779 299.418 52.7342 299.528 52.7561ZM203.916 53.4759C204.137 53.8132 204.363 54.1518 204.607 54.5492C204.907 55.0408 205.225 55.5867 205.558 56.1734C205.052 56.6181 204.572 57.0282 204.128 57.3939C203.768 57.6905 203.445 57.9393 203.123 58.1855C203.158 57.3713 203.217 56.5841 203.259 55.7853C203.476 55.0166 203.683 54.2563 203.916 53.4759ZM298.09 53.6887C298.79 55.1666 299.355 56.4844 299.817 57.6786C299.649 58.9488 299.415 60.3653 299.081 61.9689C298.916 61.8664 298.74 61.7532 298.552 61.6217C298.298 60.4161 298.029 59.1889 297.736 57.9289C297.724 56.6361 297.701 55.3823 297.666 54.1518C297.817 53.98 297.958 53.827 298.095 53.6887H298.09ZM289.426 53.8889C291.055 55.664 292.502 57.1708 293.757 58.4047C292.827 59.9006 291.778 61.7069 290.61 63.8184C289.93 62.4084 289.156 60.7209 288.391 59.0493C288.742 57.2422 289.096 55.421 289.426 53.8889ZM213.947 54.6744C213.787 55.6504 213.67 56.4756 213.496 57.5096C213.321 58.5439 213.165 59.361 212.995 60.3355C212.853 59.2864 212.713 58.3227 212.573 57.353C213.022 56.4833 213.469 55.6183 213.947 54.6744ZM296.453 55.6757C296.649 56.4691 296.822 57.242 297.004 58.0229C297.004 58.8215 297.027 59.6092 297.027 60.4231C296.718 60.1616 296.406 59.8982 296.06 59.5843C295.634 59.1974 295.174 58.7641 294.69 58.295C295.05 57.7259 295.398 57.1938 295.719 56.7179C295.981 56.3315 296.219 56.0028 296.458 55.6757H296.453ZM286.379 56.3924C286.812 57.3606 287.219 58.2477 287.628 59.14C287.44 60.103 287.253 61.061 287.061 62.1035C286.938 61.1209 286.819 60.2955 286.695 59.2527C286.57 58.2091 286.492 57.3771 286.379 56.3924ZM199.852 56.746C199.969 57.7431 200.118 58.8212 200.303 59.9692C200.233 59.996 200.149 60.0461 200.086 60.066C199.685 60.1991 199.451 60.1743 199.352 60.1219C199.247 60.0695 199.18 59.9707 199.152 59.6776C199.094 59.1343 199.348 58.0781 199.852 56.746ZM205.917 56.8276C206.808 58.4341 207.813 60.374 208.936 62.6701C207.707 64.9084 206.612 66.7947 205.645 68.3562C205.202 67.9289 204.771 67.5202 204.375 67.1608C203.849 66.6833 203.375 66.2822 202.93 65.9184C202.93 64.7918 202.942 63.6611 202.977 62.5261C203 61.3913 203.047 60.2626 203.093 59.1371C203.554 58.7949 204.046 58.4119 204.594 57.9604C205.006 57.6208 205.455 57.2324 205.917 56.8276ZM211.997 58.4487C212.185 59.7694 212.376 61.2887 212.566 62.7515C212.306 64.2052 212.041 65.7144 211.791 67.0262C211.095 65.5205 210.385 63.9695 209.762 62.6858C210.446 61.4336 211.231 59.9186 211.997 58.4487ZM294.295 58.9305C294.74 59.3583 295.169 59.7661 295.565 60.126C296.091 60.6033 296.565 61.0075 297.01 61.3714C297.01 62.4981 296.998 63.6287 296.963 64.7636C296.94 65.8985 296.893 67.0271 296.847 68.1528C296.385 68.4948 295.894 68.878 295.346 69.3294C294.933 69.6699 294.483 70.0594 294.019 70.4654C293.128 68.8584 292.127 66.9169 291.004 64.6197C292.233 62.3798 293.328 60.4926 294.295 58.9305ZM300.361 59.1339C300.803 60.492 300.998 61.5594 300.921 62.1006C300.886 62.3921 300.8 62.4883 300.698 62.5355C300.594 62.5821 300.362 62.5972 299.967 62.4446C299.897 62.4213 299.822 62.3689 299.757 62.3386C299.997 61.1981 300.199 60.1263 300.361 59.1339ZM202.342 59.6659C202.307 60.6124 202.272 61.5554 202.248 62.5074C202.225 63.4589 202.225 64.4053 202.214 65.352C202.155 65.3124 202.097 65.2587 202.045 65.2205C201.85 64.2844 201.669 63.3772 201.504 62.4918C201.711 61.6141 201.937 60.7149 202.176 59.788C202.235 59.753 202.294 59.7029 202.349 59.6659H202.342ZM288.145 60.2605C288.843 61.7665 289.555 63.3167 290.179 64.6009C289.495 65.8532 288.71 67.3678 287.942 68.838C287.756 67.5174 287.564 65.9978 287.374 64.5352C287.634 63.082 287.896 61.5719 288.145 60.2605ZM201.272 60.3234C201.237 60.4474 201.202 60.5789 201.179 60.7021C201.167 60.6077 201.144 60.5044 201.121 60.411C201.167 60.3866 201.226 60.3493 201.27 60.3236L201.272 60.3234ZM297.733 61.9382C297.792 61.9778 297.85 62.029 297.899 62.0664C298.095 63.0041 298.276 63.9115 298.443 64.7985C298.236 65.6761 298.01 66.5752 297.771 67.5021C297.712 67.5371 297.654 67.5872 297.599 67.6242C297.634 66.6778 297.669 65.7346 297.693 64.7827C297.716 63.8311 297.716 62.8849 297.728 61.9382H297.733ZM298.768 62.6453C298.815 62.6745 298.873 62.7152 298.918 62.742C298.907 62.8352 298.872 62.9388 298.848 63.0331C298.825 62.9069 298.79 62.7722 298.767 62.6451L298.768 62.6453ZM209.326 63.4685C210.008 64.8793 210.782 66.5678 211.55 68.2407C211.198 70.0469 210.844 71.8696 210.514 73.401C208.885 71.6257 207.439 70.1194 206.183 68.8854C207.113 67.389 208.159 65.5807 209.326 63.4685ZM201.088 64.2632C201.111 64.3876 201.146 64.5199 201.17 64.645C201.123 64.6171 201.065 64.5775 201.023 64.5507C201.035 64.4586 201.069 64.3558 201.093 64.2627L201.088 64.2632ZM199.499 64.7264C199.62 64.7381 199.777 64.7695 199.974 64.8453C200.044 64.8686 200.118 64.921 200.184 64.9513C199.945 66.0878 199.741 67.1569 199.581 68.1464C199.14 66.7926 198.942 65.7291 199.02 65.1892C199.055 64.8976 199.14 64.8014 199.243 64.7542C199.289 64.7309 199.378 64.716 199.499 64.7264ZM212.879 65.1864C213.003 66.1691 213.121 66.9945 213.245 68.0374C213.371 69.081 213.449 69.9128 213.561 70.8975C213.129 69.9292 212.721 69.0423 212.313 68.15C212.5 67.187 212.687 66.229 212.879 65.1864ZM200.86 65.321C201.024 65.4235 201.199 65.5374 201.385 65.6683C201.639 66.874 201.912 68.1008 202.204 69.361C202.204 70.6538 202.239 71.9077 202.274 73.1382C202.124 73.31 201.983 73.4629 201.847 73.6013C201.145 72.1224 200.581 70.803 200.12 69.6083C200.287 68.3388 200.522 66.9234 200.855 65.321H200.86ZM290.573 65.406C291.638 67.5701 292.599 69.4256 293.458 70.9638C292.145 72.1369 290.629 73.5736 288.915 75.2699C288.66 73.7243 288.392 71.8868 288.128 70.0657C288.974 68.4318 289.826 66.7825 290.573 65.406ZM298.764 66.5858C298.776 66.6814 298.799 66.7856 298.823 66.88C298.776 66.9045 298.718 66.9418 298.672 66.9674C298.707 66.8424 298.742 66.7097 298.766 66.5856L298.764 66.5858ZM202.917 66.8674C203.227 67.129 203.538 67.3923 203.884 67.7061C204.309 68.0926 204.768 68.5271 205.251 68.9955C204.891 69.5646 204.548 70.0968 204.226 70.5727C203.963 70.9579 203.725 71.2854 203.487 71.6115C203.292 70.8214 203.119 70.0518 202.937 69.2739C202.937 68.4732 202.925 67.6835 202.925 66.8674H202.917ZM286.945 66.9548C287.087 68.0027 287.228 68.9655 287.368 69.934C286.917 70.8047 286.472 71.6708 285.995 72.6158C286.153 71.6399 286.271 70.8147 286.445 69.7807C286.619 68.7468 286.776 67.9289 286.945 66.9548ZM300.335 67.127C300.456 67.127 300.539 67.1422 300.589 67.1678C300.694 67.2202 300.761 67.3189 300.789 67.6121C300.836 68.1553 300.594 69.2095 300.088 70.5412C299.971 69.545 299.822 68.4678 299.637 67.321C299.707 67.2942 299.792 67.2441 299.853 67.2243C300.054 67.1578 300.214 67.1305 300.335 67.127ZM298.946 67.6558C299.204 69.2723 299.369 70.6984 299.475 71.9743C298.958 73.1457 298.332 74.4363 297.561 75.8798C297.432 75.7356 297.299 75.5761 297.158 75.3979C297.251 74.1697 297.337 72.9156 297.411 71.6239C297.763 70.3806 298.092 69.169 298.402 67.9781C298.597 67.8555 298.776 67.7504 298.946 67.6558ZM296.817 69.1048C296.782 69.919 296.723 70.7062 296.681 71.505C296.462 72.2749 296.254 73.0358 296.022 73.8175C295.799 73.4799 295.577 73.1391 295.335 72.741C295.034 72.2495 294.712 71.7037 294.38 71.1169C294.886 70.6715 295.368 70.2595 295.812 69.8934C296.172 69.5967 296.495 69.3509 296.817 69.1048ZM212.072 69.3613C212.624 70.5769 213.235 71.9817 213.83 73.3326C213.989 74.7996 214.161 76.3231 214.29 77.6511C213.197 76.403 212.079 75.1144 211.119 74.0585C211.422 72.6638 211.751 70.9886 212.072 69.3613ZM205.786 69.5209C207.093 70.8107 208.599 72.3889 210.321 74.2745C209.772 76.7691 209.253 78.8908 208.767 80.6615C208.222 80.3767 207.694 80.1062 207.212 79.8729C206.572 79.5632 206.006 79.3109 205.476 79.0875C205.168 78.0029 204.859 76.9149 204.566 75.8172C204.272 74.72 203.995 73.6247 203.721 72.5315C204.068 72.0731 204.434 71.5695 204.831 70.9823C205.132 70.5394 205.455 70.041 205.786 69.5209ZM199.941 71.1577C200.33 72.0804 200.783 73.071 201.282 74.118C201.223 74.1635 201.155 74.2345 201.1 74.2713C200.753 74.5125 200.518 74.5562 200.409 74.5342C200.304 74.512 200.203 74.4351 200.093 74.1618C199.892 73.6555 199.831 72.5767 199.941 71.1577ZM287.556 71.1577C287.799 72.7978 288.044 74.4853 288.28 75.8924C287.27 76.9022 286.091 78.1355 284.94 79.3315C285.132 78.0107 285.378 76.4964 285.605 75.038C286.265 73.7175 286.946 72.3452 287.556 71.1577ZM293.827 71.6145C294.131 72.1494 294.429 72.663 294.709 73.1197C295.078 73.7255 295.419 74.2444 295.744 74.7188C295.417 75.7979 295.089 76.8788 294.743 77.9608C294.397 79.0433 294.036 80.1155 293.677 81.1842C293.136 81.3819 292.561 81.6068 291.908 81.8851C291.418 82.0953 290.875 82.3431 290.317 82.6016C289.914 80.8091 289.499 78.6652 289.068 76.1459C290.878 74.3442 292.459 72.8407 293.827 71.6145ZM203.151 73.2481C203.386 74.1665 203.613 75.0849 203.859 76.005C204.104 76.9246 204.365 77.8319 204.622 78.7432C204.552 78.7199 204.487 78.6872 204.426 78.6651C203.975 77.8228 203.545 77.0044 203.136 76.2023C203.09 75.2998 203.055 74.373 203.02 73.414C203.055 73.3651 203.113 73.2998 203.15 73.2482L203.151 73.2481ZM299.588 73.5204C299.623 74.9466 299.518 76.0243 299.29 76.5213C299.169 76.7893 299.067 76.8614 298.956 76.8781C298.851 76.8944 298.618 76.842 298.281 76.5839C298.223 76.5443 298.161 76.4698 298.105 76.4213C298.657 75.3958 299.154 74.4261 299.588 73.5204ZM202.311 74.1837C202.311 74.3118 202.311 74.4479 202.311 74.575C202.265 74.4888 202.218 74.3942 202.179 74.3088C202.214 74.2727 202.26 74.2215 202.297 74.1837H202.311ZM210.924 74.9285C211.975 76.0899 213.193 77.4924 214.4 78.8809C214.571 80.7141 214.748 82.5626 214.862 84.1258C212.797 82.8806 210.983 81.8426 209.43 81.0119C209.9 79.3139 210.399 77.2846 210.924 74.9285ZM296.278 75.4667C296.313 75.5203 296.36 75.5877 296.404 75.6388C296.334 76.5913 296.243 77.5125 296.154 78.4083C295.706 79.1934 295.238 79.9942 294.745 80.818C294.675 80.8366 294.611 80.8669 294.549 80.8867C294.85 79.9884 295.151 79.0931 295.441 78.186C295.731 77.2788 296.002 76.3729 296.278 75.4667ZM214.817 75.5763C215.211 76.4843 215.557 77.2426 215.97 78.2081C216.384 79.1737 216.693 79.9491 217.077 80.8618C216.39 80.0556 215.752 79.3177 215.109 78.5773C215.016 77.6013 214.924 76.6302 214.817 75.5763ZM297.076 76.4399C297.111 76.4795 297.146 76.5331 297.193 76.5713C297.158 76.6529 297.1 76.7423 297.05 76.8248C297.061 76.6998 297.073 76.566 297.084 76.4399H297.076ZM288.434 76.7748C288.845 79.152 289.248 81.203 289.639 82.9209C288.047 83.6767 286.187 84.6293 284.065 85.7748C284.254 84.2194 284.516 82.3808 284.774 80.5582C286.047 79.2283 287.329 77.8852 288.434 76.7748ZM284.517 77.2317C284.359 78.281 284.223 79.2481 284.083 80.2202C283.406 80.9296 282.732 81.6347 282.005 82.4077C282.433 81.5145 282.78 80.7548 283.239 79.8102C283.698 78.8641 284.08 78.1213 284.517 77.2317ZM203.246 78.0108C203.304 78.1227 203.368 78.2425 203.426 78.3551C203.368 78.3412 203.31 78.3178 203.262 78.305C203.262 78.2106 203.262 78.1058 203.25 78.0108H203.246ZM202.336 78.8871C202.406 78.8871 202.498 78.9174 202.57 78.9278C202.663 80.0881 202.766 81.1733 202.889 82.1699C202.084 80.9935 201.597 80.0253 201.519 79.4848C201.484 79.1933 201.519 79.0801 201.612 79.0061C201.694 78.9327 201.916 78.8526 202.338 78.8872L202.336 78.8871ZM203.321 79.0937C203.508 79.1461 203.708 79.2054 203.925 79.2783C204.506 80.3634 205.112 81.4632 205.749 82.5892C206.123 83.8277 206.501 85.026 206.884 86.1973C206.791 86.4031 206.693 86.5876 206.602 86.7575C205.514 85.5387 204.603 84.4332 203.825 83.4185C203.627 82.153 203.452 80.7261 203.321 79.0937ZM215.216 79.8134C216.087 80.8229 217.07 81.9946 218.022 83.1211C218.588 84.4841 219.181 85.8982 219.679 87.1362C218.281 86.247 216.844 85.3309 215.625 84.5889C215.521 83.165 215.366 81.4658 215.216 79.8134ZM205.732 79.998C206.101 80.1614 206.473 80.3269 206.893 80.53C207.411 80.7813 207.976 81.0675 208.572 81.3813C208.388 82.0292 208.203 82.6327 208.028 83.1806C207.886 83.6248 207.749 84.0077 207.613 84.3886C207.203 83.685 206.82 82.9965 206.426 82.3013C206.196 81.5355 205.959 80.7813 205.732 79.998ZM295.959 80.2234C295.959 80.3166 295.947 80.4194 295.924 80.5113C295.878 80.5229 295.808 80.5404 295.758 80.552C295.827 80.4437 295.893 80.3308 295.956 80.2235L295.959 80.2234ZM296.826 81.1371C297.249 81.1231 297.464 81.2128 297.545 81.2905C297.626 81.3686 297.671 81.4832 297.615 81.7724C297.51 82.3084 296.977 83.2521 296.118 84.3886C296.288 83.3998 296.444 82.322 296.589 81.1685C296.659 81.1568 296.762 81.1393 296.827 81.137L296.826 81.1371ZM295.831 81.2967C295.622 82.9206 295.381 84.3358 295.125 85.5902C294.299 86.5676 293.335 87.6313 292.191 88.7978C292.11 88.623 292.021 88.4335 291.934 88.222C292.373 87.0707 292.808 85.8922 293.241 84.6733C293.931 83.5783 294.591 82.5099 295.225 81.4532C295.443 81.3914 295.643 81.339 295.831 81.2967ZM283.915 81.447C283.687 83.0906 283.448 84.7796 283.279 86.1973C282.028 86.8806 280.549 87.729 279.11 88.5507C279.666 87.3391 280.326 85.9563 280.956 84.6232C281.959 83.5423 282.997 82.4145 283.915 81.447ZM209.229 81.7349C210.846 82.604 212.736 83.6936 214.918 85.0175C215.095 87.5658 215.194 89.7467 215.225 91.583C214.622 91.4637 214.041 91.3518 213.514 91.2639C212.814 91.1468 212.197 91.0628 211.626 90.9978C211.024 90.0454 210.424 89.0879 209.833 88.1188C209.242 87.1484 208.669 86.1743 208.097 85.2021C208.301 84.665 208.509 84.0811 208.726 83.4059C208.889 82.8965 209.059 82.3265 209.229 81.7349ZM293.38 82.0853C293.115 82.8562 292.846 83.5977 292.578 84.351C292.153 85.0271 291.736 85.6983 291.293 86.3819C291.174 85.9953 291.057 85.6054 290.937 85.1553C290.786 84.5992 290.633 83.9871 290.48 83.3308C291.09 83.0461 291.668 82.7872 292.197 82.561C292.625 82.378 293.002 82.2309 293.38 82.0853ZM289.807 83.6531C289.95 84.2521 290.091 84.8297 290.229 85.3461C290.414 86.0313 290.592 86.6272 290.771 87.1737C290.154 88.1172 289.534 89.0619 288.897 90.0027C288.261 90.9432 287.614 91.8708 286.967 92.7941C286.394 92.8326 285.777 92.8861 285.072 92.9693C284.539 93.0322 283.951 93.1164 283.342 93.2072C283.461 91.3741 283.664 89.2016 283.962 86.6635C286.208 85.4435 288.15 84.4451 289.807 83.6531ZM204.081 84.9519C204.715 85.7273 205.427 86.551 206.201 87.4146C206.166 87.4752 206.108 87.5611 206.071 87.6118C205.804 87.9413 205.594 88.0494 205.481 88.0593C205.365 88.071 205.258 88.0255 205.076 87.7933C204.738 87.3643 204.377 86.3452 204.081 84.9519ZM219.602 85.002C220.235 85.7619 220.781 86.3921 221.449 87.2019C222.117 88.011 222.632 88.6665 223.258 89.4331C222.372 88.8537 221.552 88.3285 220.727 87.7996C220.365 86.8887 220.002 85.9829 219.602 85.002ZM215.685 85.4775C217.02 86.2963 218.582 87.3012 220.133 88.294C220.813 90.0034 221.502 91.7282 222.053 93.1946C219.719 92.5819 217.689 92.0926 215.963 91.7332C215.94 89.9718 215.844 87.8851 215.685 85.4775ZM207.753 86.0566C208.236 86.8716 208.713 87.6876 209.208 88.5006C209.702 89.313 210.208 90.1118 210.712 90.9133C210.643 90.9133 210.567 90.898 210.503 90.8945C209.831 90.2112 209.189 89.545 208.57 88.8887C208.271 88.0386 207.975 87.1622 207.674 86.2538C207.697 86.1956 207.721 86.1176 207.756 86.0567L207.753 86.0566ZM279.285 86.4289C278.838 87.3876 278.437 88.2732 278.03 89.1639C277.182 89.6531 276.339 90.139 275.425 90.6755C276.086 89.9399 276.631 89.311 277.337 88.5349C278.042 87.7592 278.616 87.1567 279.285 86.4289ZM283.179 87.0861C282.906 89.4829 282.714 91.565 282.603 93.323C280.865 93.5996 278.813 93.9868 276.455 94.487C277.075 93.0475 277.842 91.3568 278.604 89.6803C280.197 88.7635 281.807 87.8397 283.179 87.0861ZM294.793 87.1117C294.432 88.489 294.024 89.4907 293.667 89.903C293.474 90.1256 293.355 90.1655 293.245 90.1503C293.14 90.1352 292.929 90.0197 292.678 89.6779C292.643 89.6243 292.597 89.534 292.556 89.4712C293.373 88.6449 294.123 87.8565 294.793 87.1117ZM207.209 87.1933C207.256 87.3127 207.291 87.4409 207.327 87.5593C207.257 87.4906 207.193 87.4153 207.131 87.3466C207.154 87.3012 207.178 87.2406 207.213 87.1933H207.209ZM291.074 88.0412C291.097 88.103 291.121 88.1817 291.144 88.2416C290.803 89.1338 290.466 89.9955 290.128 90.8295C289.477 91.4573 288.799 92.0925 288.095 92.7448C288.025 92.7448 287.952 92.7564 287.888 92.7564C288.428 91.9792 288.971 91.2039 289.506 90.4155C290.038 89.627 290.554 88.8348 291.075 88.0435L291.074 88.0412ZM221.18 88.955C222.301 89.6784 223.573 90.5297 224.802 91.3428C225.729 92.4909 226.697 93.6787 227.524 94.7257C225.931 94.2665 224.294 93.7894 222.916 93.4207C222.42 92.0834 221.788 90.4978 221.18 88.955ZM291.562 89.2024C291.574 89.2514 291.609 89.3119 291.632 89.3587C291.562 89.4251 291.49 89.4956 291.422 89.5621C291.469 89.4456 291.517 89.3199 291.562 89.2024ZM277.527 90.2945C276.847 91.8074 276.14 93.3597 275.579 94.6725C274.185 94.9754 272.526 95.3754 270.912 95.7583C271.789 94.7504 272.811 93.608 273.793 92.5037C275.061 91.7497 276.375 90.9639 277.527 90.2945ZM209.179 90.598C209.272 90.69 209.367 90.7868 209.458 90.8797C209.399 90.8797 209.333 90.8797 209.279 90.8797C209.245 90.79 209.21 90.6886 209.175 90.598H209.179ZM209.561 91.6183C209.756 91.6183 209.963 91.6181 210.193 91.6298C211.06 92.5087 211.95 93.396 212.879 94.2992C213.587 95.3783 214.282 96.4189 214.979 97.4318C214.944 97.6589 214.909 97.8638 214.874 98.0544C213.483 97.1897 212.298 96.3819 211.264 95.6261C210.718 94.4687 210.151 93.1509 209.566 91.6235L209.561 91.6183ZM208.795 91.6717C209.208 92.7599 209.615 93.7701 210.015 94.6915C208.91 93.7898 208.17 92.9977 207.944 92.501C207.822 92.2332 207.828 92.1107 207.898 92.0159C207.968 91.9215 208.151 91.7826 208.565 91.6968C208.635 91.684 208.727 91.6827 208.799 91.671L208.795 91.6717ZM212.129 91.8064C212.53 91.8588 212.933 91.9112 213.393 91.9879C213.961 92.0822 214.58 92.1996 215.241 92.332C215.241 93.0064 215.241 93.6371 215.241 94.2129C215.241 94.679 215.206 95.0857 215.171 95.4897C214.579 94.9284 214.018 94.3733 213.442 93.8154C213.005 93.1474 212.568 92.4923 212.131 91.8064H212.129ZM215.973 92.4885C217.77 92.8669 219.892 93.3762 222.359 94.0314C223.247 96.4275 223.955 98.4928 224.502 100.246C223.89 100.302 223.301 100.358 222.769 100.422C222.065 100.507 221.447 100.601 220.88 100.7C220.035 99.9556 219.189 99.2072 218.35 98.4436C217.51 97.6804 216.687 96.9079 215.867 96.1373C215.902 95.5638 215.936 94.9416 215.96 94.2316C215.971 93.6972 215.973 93.1037 215.973 92.4885ZM289.431 92.5141C289.396 92.6015 289.361 92.6997 289.315 92.7864C289.257 92.7864 289.195 92.7864 289.139 92.7748C289.232 92.6874 289.335 92.5987 289.427 92.5119L289.431 92.5141ZM226.846 92.6988C227.668 93.2494 228.371 93.6996 229.241 94.2885C230.11 94.8774 230.788 95.3622 231.605 95.922C230.59 95.6152 229.654 95.3402 228.712 95.0646C228.108 94.2936 227.505 93.5265 226.846 92.6988ZM288.371 93.4874C288.601 93.4874 288.809 93.499 289.004 93.5095C288.347 95.0072 287.721 96.2972 287.12 97.4275C286.052 98.1336 284.826 98.8827 283.395 99.6806C283.372 99.4891 283.337 99.2825 283.314 99.0547C284.058 98.0726 284.807 97.0643 285.568 96.0161C286.536 95.1611 287.467 94.3213 288.371 93.4874ZM286.429 93.5747C285.958 94.241 285.492 94.8763 285.022 95.5244C284.422 96.0534 283.835 96.5793 283.217 97.1109C283.217 96.7063 283.217 96.3004 283.217 95.8343C283.229 95.2594 283.264 94.6254 283.287 93.9534C283.955 93.8521 284.583 93.7647 285.155 93.6969C285.617 93.6421 286.021 93.6083 286.423 93.5747H286.429ZM289.767 93.6003C289.837 93.6143 289.938 93.6214 290.001 93.6377C290.411 93.7437 290.593 93.8908 290.649 93.9883C290.707 94.0862 290.719 94.2085 290.579 94.4701C290.328 94.9555 289.551 95.7092 288.405 96.5574C288.848 95.6558 289.303 94.6676 289.769 93.6002L289.767 93.6003ZM271.69 93.7632C270.99 94.5596 270.354 95.2988 269.711 96.0412C268.758 96.2715 267.812 96.5001 266.784 96.7578C267.625 96.2383 268.324 95.7862 269.22 95.2402C270.117 94.6925 270.841 94.2747 271.69 93.7632ZM282.557 94.0729C282.522 94.6883 282.487 95.2808 282.487 95.8159C282.475 96.5268 282.475 97.1495 282.487 97.725C281.63 98.4558 280.769 99.1864 279.894 99.9092C279.018 100.633 278.138 101.339 277.258 102.043C276.696 101.918 276.086 101.796 275.387 101.677C274.86 101.588 274.272 101.502 273.664 101.418C274.294 99.6921 275.1 97.6634 276.1 95.3122C278.597 94.7751 280.739 94.3653 282.553 94.0729H282.557ZM223.224 94.2608C224.734 94.6694 226.515 95.1913 228.281 95.7064C229.416 97.1559 230.565 98.6159 231.506 99.8685C229.097 99.9384 227.008 100.043 225.253 100.184C224.732 98.502 224.053 96.5256 223.224 94.2608ZM275.232 95.4968C274.293 97.7201 273.524 99.6644 272.924 101.321C271.176 101.096 269.098 100.889 266.693 100.704C267.693 99.4986 268.907 98.0941 270.108 96.7016C271.896 96.2709 273.702 95.8332 275.232 95.4968ZM229.473 96.0476C230.751 96.4262 232.214 96.881 233.622 97.315C234.834 98.1548 236.095 99.0224 237.182 99.7934C235.525 99.8051 233.823 99.8061 232.396 99.8399C231.542 98.6976 230.49 97.3558 229.473 96.0476ZM268.904 96.9863C267.825 98.2455 266.709 99.5342 265.801 100.635C264.38 100.533 262.678 100.45 261.022 100.363C262.145 99.6442 263.447 98.8352 264.698 98.0535C266.126 97.6871 267.609 97.3038 268.904 96.9863ZM211.935 97.0201C212.765 97.5874 213.679 98.1787 214.668 98.7914C214.644 98.8601 214.633 98.9569 214.598 99.0168C214.435 99.408 214.265 99.5702 214.161 99.6112C214.056 99.652 213.93 99.6416 213.691 99.4704C213.248 99.1534 212.611 98.2768 211.935 97.0201ZM215.776 97.0516C216.467 97.6974 217.155 98.3455 217.859 98.9855C218.564 99.6265 219.273 100.251 219.983 100.879C219.913 100.893 219.838 100.906 219.776 100.92C218.94 100.453 218.134 99.995 217.355 99.5395C216.829 98.8077 216.298 98.0494 215.754 97.2614C215.754 97.1985 215.764 97.1172 215.776 97.0516ZM235.969 98.0437C236.912 98.3393 237.711 98.5725 238.708 98.8918C239.708 99.2112 240.495 99.4832 241.437 99.7897C240.378 99.7781 239.404 99.778 238.424 99.778C237.627 99.2094 236.835 98.6453 235.969 98.0382V98.0437ZM215.572 98.294C215.642 98.3977 215.72 98.5077 215.792 98.61C215.71 98.5611 215.618 98.5121 215.538 98.4628C215.55 98.4127 215.55 98.3464 215.573 98.294H215.572ZM282.538 98.6413C282.538 98.7054 282.538 98.7854 282.55 98.8478C281.968 99.6103 281.401 100.344 280.838 101.051C280.04 101.469 279.213 101.886 278.355 102.312C278.286 102.295 278.216 102.282 278.153 102.265C278.891 101.672 279.629 101.082 280.363 100.475C281.098 99.8693 281.816 99.2538 282.538 98.6413ZM262.323 98.6671C261.428 99.2336 260.608 99.7629 259.784 100.294C258.804 100.246 257.83 100.199 256.772 100.156C257.727 99.8946 258.528 99.6588 259.542 99.3867C260.556 99.115 261.366 98.9179 262.323 98.6671ZM286.373 98.7953C285.638 100.017 284.961 100.863 284.502 101.158C284.255 101.317 284.129 101.323 284.028 101.277C283.923 101.231 283.761 101.062 283.617 100.663C283.605 100.603 283.582 100.505 283.547 100.435C284.565 99.8709 285.508 99.322 286.362 98.7953H286.373ZM282.679 99.8905C282.679 99.9441 282.691 100.011 282.702 100.063C282.621 100.108 282.526 100.155 282.442 100.2C282.512 100.1 282.601 99.9914 282.679 99.8905ZM240.181 100.504C241.265 100.504 242.594 100.542 243.767 100.558C245.167 101.022 246.623 101.5 247.885 101.934C246.296 102.41 244.659 102.892 243.301 103.327C242.158 102.471 240.77 101.48 239.425 100.511C239.698 100.511 239.902 100.499 240.181 100.499V100.504ZM238.186 100.519C239.684 101.59 241.197 102.668 242.453 103.605C240.159 104.351 238.185 105.043 236.541 105.673C235.567 104.205 234.361 102.5 232.925 100.56C234.491 100.526 236.347 100.522 238.186 100.519ZM232.037 100.584C233.562 102.633 234.825 104.414 235.843 105.942C235.269 106.168 234.718 106.39 234.226 106.602C233.575 106.882 233.014 107.143 232.496 107.397C231.477 106.921 230.453 106.441 229.432 105.945C228.41 105.449 227.4 104.942 226.395 104.433C226.276 103.871 226.137 103.264 225.953 102.578C225.816 102.061 225.648 101.491 225.471 100.9C227.303 100.757 229.483 100.651 232.037 100.584ZM246.221 100.596C247.211 100.613 248.042 100.615 249.09 100.64C250.138 100.666 250.973 100.705 251.962 100.735C250.942 101.025 250.008 101.299 249.068 101.576C248.143 101.255 247.225 100.934 246.221 100.596ZM254.411 100.815C255.884 100.866 257.416 100.91 258.749 100.971C257.358 101.876 255.926 102.802 254.745 103.603C253.409 103.104 251.799 102.542 250.235 101.992C251.514 101.619 252.99 101.212 254.411 100.815ZM224.728 100.962C224.922 101.607 225.096 102.215 225.244 102.771C225.364 103.221 225.456 103.616 225.546 104.01C224.821 103.639 224.124 103.266 223.416 102.893C222.808 102.375 222.204 101.867 221.59 101.331C221.991 101.268 222.393 101.209 222.857 101.153C223.429 101.084 224.056 101.021 224.728 100.962ZM218.428 101.012C218.533 101.074 218.657 101.138 218.765 101.2C218.719 101.216 218.649 101.229 218.601 101.246C218.543 101.172 218.484 101.088 218.428 101.012ZM259.986 101.04C261.824 101.131 263.677 101.223 265.238 101.331C263.713 103.198 262.427 104.844 261.386 106.263C259.773 105.555 257.836 104.774 255.58 103.919C256.879 103.043 258.44 102.039 259.986 101.04ZM266.13 101.397C268.678 101.586 270.849 101.798 272.67 102.029C272.466 102.61 272.272 103.172 272.111 103.681C271.894 104.358 271.724 104.955 271.578 105.512C270.55 105.972 269.516 106.432 268.472 106.88C267.43 107.326 266.386 107.754 265.346 108.181C264.841 107.903 264.291 107.616 263.653 107.305C263.172 107.071 262.632 106.82 262.071 106.567C263.161 105.089 264.509 103.371 266.13 101.397ZM219.682 101.707C220.757 102.303 221.859 102.901 223.001 103.503C223.987 104.342 224.954 105.144 225.909 105.922C225.944 106.149 225.967 106.357 225.979 106.551C224.403 106.113 223.036 105.677 221.832 105.243C220.982 104.286 220.068 103.177 219.076 101.876C219.26 101.819 219.461 101.763 219.682 101.707ZM273.409 102.12C274.075 102.211 274.702 102.305 275.269 102.401C275.729 102.479 276.13 102.558 276.526 102.639C275.889 103.144 275.262 103.622 274.631 104.11C273.906 104.449 273.191 104.79 272.448 105.127C272.552 104.738 272.667 104.348 272.808 103.903C272.982 103.355 273.183 102.755 273.409 102.12ZM218.356 102.145C219.061 103.075 219.737 103.929 220.38 104.702C219.065 104.147 218.129 103.594 217.771 103.181C217.579 102.959 217.556 102.838 217.587 102.731C217.622 102.623 217.764 102.435 218.137 102.236C218.195 102.206 218.289 102.176 218.356 102.145ZM249.053 102.349C250.788 102.954 252.542 103.563 254.01 104.108C252.02 105.47 250.321 106.688 248.921 107.756C247.574 106.623 245.936 105.325 244.013 103.87C245.507 103.396 247.288 102.871 249.053 102.349ZM279.698 102.471C279.628 102.544 279.573 102.627 279.513 102.699C279.467 102.679 279.397 102.662 279.352 102.643C279.468 102.586 279.586 102.527 279.698 102.471ZM278.413 103.106C278.632 103.173 278.827 103.237 279.01 103.303C277.957 104.556 276.992 105.617 276.098 106.533C274.875 106.909 273.489 107.282 271.894 107.644C271.917 107.452 271.952 107.245 271.987 107.021C272.976 106.291 273.978 105.535 275 104.746C276.172 104.197 277.305 103.653 278.409 103.106H278.413ZM279.716 103.607C279.786 103.641 279.877 103.677 279.933 103.711C280.298 103.927 280.433 104.118 280.458 104.227C280.482 104.336 280.458 104.458 280.251 104.671C279.875 105.066 278.918 105.57 277.581 106.061C278.259 105.321 278.971 104.499 279.716 103.607ZM243.167 104.148C245.204 105.683 246.916 107.035 248.323 108.213C247.839 108.591 247.371 108.961 246.96 109.302C246.413 109.755 245.948 110.165 245.525 110.554C244.41 110.385 243.294 110.214 242.175 110.025C241.055 109.837 239.944 109.632 238.836 109.428C238.564 108.921 238.258 108.382 237.889 107.775C237.612 107.318 237.293 106.817 236.957 106.301C238.673 105.648 240.734 104.932 243.167 104.148ZM254.842 104.424C257.232 105.322 259.258 106.136 260.942 106.871C260.581 107.371 260.239 107.857 259.941 108.301C259.542 108.889 259.209 109.414 258.915 109.906C257.797 110.058 256.679 110.21 255.551 110.344C254.424 110.479 253.3 110.598 252.179 110.714C251.775 110.304 251.329 109.872 250.804 109.393C250.409 109.032 249.961 108.643 249.493 108.241C250.956 107.131 252.731 105.861 254.842 104.424ZM226.566 105.341C227.413 105.766 228.257 106.192 229.113 106.608C229.968 107.024 230.823 107.423 231.681 107.825C231.622 107.858 231.546 107.89 231.49 107.922C230.558 107.71 229.658 107.497 228.784 107.28C228.074 106.727 227.35 106.15 226.607 105.547C226.607 105.484 226.584 105.405 226.572 105.34L226.566 105.341ZM222.875 106.392C223.832 106.703 224.873 107.013 225.998 107.321C225.998 107.394 225.998 107.492 225.998 107.556C225.951 107.977 225.832 108.182 225.744 108.251C225.651 108.32 225.535 108.344 225.256 108.251C224.741 108.072 223.882 107.41 222.879 106.395L222.875 106.392ZM271.366 106.407C271.355 106.472 271.331 106.551 271.32 106.614C270.551 107.179 269.801 107.72 269.064 108.238C268.18 108.413 267.269 108.584 266.324 108.751C266.266 108.717 266.199 108.679 266.144 108.645C267.018 108.284 267.893 107.928 268.768 107.553C269.642 107.178 270.505 106.792 271.37 106.407L271.366 106.407ZM236.257 106.567C236.625 107.131 236.964 107.662 237.264 108.153C237.506 108.552 237.704 108.908 237.902 109.261C237.1 109.11 236.327 108.947 235.543 108.789C234.813 108.463 234.09 108.147 233.35 107.806C233.717 107.633 234.085 107.461 234.514 107.277C235.043 107.05 235.63 106.812 236.257 106.567ZM226.724 106.585C226.828 106.666 226.927 106.753 227.026 106.833C226.933 106.808 226.831 106.782 226.739 106.758C226.739 106.706 226.739 106.64 226.727 106.586L226.724 106.585ZM261.626 107.171C262.241 107.446 262.814 107.71 263.331 107.962C263.749 108.167 264.112 108.357 264.468 108.548C263.713 108.853 262.975 109.136 262.229 109.427C261.439 109.548 260.66 109.67 259.852 109.784C260.067 109.44 260.286 109.097 260.547 108.71C260.868 108.233 261.231 107.716 261.626 107.171ZM274.993 107.637C273.947 108.6 273.062 109.22 272.538 109.374C272.256 109.456 272.136 109.425 272.05 109.351C271.969 109.279 271.858 109.07 271.831 108.647C271.831 108.583 271.831 108.486 271.831 108.413C272.964 108.159 274.02 107.9 274.986 107.637L274.993 107.637ZM271.15 107.648C271.15 107.703 271.138 107.768 271.126 107.82C271.033 107.84 270.932 107.86 270.84 107.88C270.945 107.805 271.05 107.723 271.152 107.648H271.15ZM230.223 108.39C230.348 108.419 230.482 108.448 230.608 108.478C230.561 108.508 230.503 108.54 230.46 108.572C230.39 108.515 230.3 108.448 230.223 108.39ZM248.896 108.697C249.408 109.135 249.888 109.551 250.312 109.939C250.657 110.253 250.949 110.536 251.238 110.819C250.425 110.899 249.636 110.962 248.836 111.031C248.047 110.924 247.265 110.824 246.461 110.706C246.764 110.438 247.07 110.167 247.43 109.87C247.871 109.504 248.364 109.109 248.896 108.697ZM231.627 108.708C232.829 108.979 234.059 109.244 235.327 109.5C236.506 110.026 237.654 110.523 238.787 110.999C238.881 111.21 238.961 111.402 239.031 111.584C237.395 111.609 235.961 111.57 234.683 111.494C233.6 110.815 232.409 110.011 231.092 109.043C231.254 108.936 231.429 108.825 231.627 108.708ZM267.566 109.284C267.485 109.338 267.399 109.4 267.321 109.453C267.275 109.421 267.228 109.383 267.18 109.349C267.306 109.326 267.44 109.306 267.566 109.284ZM230.476 109.506C231.413 110.198 232.301 110.825 233.135 111.384C231.718 111.223 230.667 110.959 230.207 110.664C229.959 110.505 229.905 110.395 229.904 110.283C229.904 110.171 229.986 109.95 230.292 109.654C230.339 109.608 230.421 109.555 230.476 109.506ZM266.148 109.532C266.34 109.658 266.512 109.777 266.668 109.892C265.305 110.798 264.081 111.544 262.964 112.17C261.685 112.186 260.251 112.15 258.616 112.048C258.698 111.87 258.782 111.683 258.887 111.479C260.041 111.057 261.214 110.615 262.418 110.145C263.696 109.95 264.935 109.745 266.148 109.532ZM239.256 110.255C240.187 110.424 241.114 110.598 242.053 110.756C242.991 110.914 243.925 111.055 244.861 111.2C244.814 111.247 244.756 111.299 244.712 111.344C243.754 111.405 242.829 111.452 241.927 111.491C241.09 111.161 240.234 110.814 239.354 110.446C239.33 110.388 239.284 110.315 239.26 110.255H239.256ZM267.258 110.38C267.317 110.432 267.392 110.492 267.437 110.54C267.726 110.85 267.8 111.072 267.794 111.184C267.794 111.296 267.725 111.403 267.475 111.551C267.002 111.823 265.941 112.039 264.52 112.133C265.377 111.614 266.293 111.026 267.258 110.38ZM258.457 110.712C258.422 110.77 258.387 110.839 258.352 110.896C257.452 111.223 256.581 111.529 255.728 111.82C254.83 111.738 253.911 111.646 252.96 111.541C252.925 111.493 252.855 111.437 252.813 111.388C253.753 111.288 254.692 111.191 255.637 111.078C256.582 110.965 257.519 110.837 258.457 110.712ZM239.757 111.41C239.873 111.459 239.997 111.512 240.112 111.56C240.019 111.56 239.913 111.572 239.82 111.572C239.796 111.523 239.785 111.462 239.75 111.412L239.757 111.41ZM248.824 111.773C250.106 111.945 251.353 112.098 252.578 112.236C252.726 112.41 252.854 112.573 252.972 112.727C251.408 113.212 250.022 113.58 248.774 113.866C247.543 113.521 246.176 113.085 244.639 112.527C244.763 112.379 244.902 112.224 245.058 112.058C246.286 111.978 247.537 111.884 248.824 111.773ZM257.901 111.838C257.889 111.888 257.843 111.949 257.831 111.998C257.738 111.986 257.635 111.98 257.541 111.972C257.66 111.93 257.784 111.88 257.903 111.838L257.901 111.838ZM244.01 112.123C243.975 112.165 243.929 112.214 243.894 112.254C243.801 112.222 243.709 112.182 243.619 112.148C243.745 112.136 243.88 112.131 244.007 112.123L244.01 112.123ZM236.006 112.304C237.011 112.333 238.101 112.337 239.266 112.317C239.278 112.388 239.313 112.482 239.336 112.546C239.406 112.963 239.348 113.19 239.29 113.281C239.22 113.372 239.114 113.43 238.82 113.416C238.274 113.389 237.262 112.997 236.015 112.305L236.006 112.304ZM253.619 112.351C253.745 112.364 253.879 112.381 254.003 112.395C253.91 112.424 253.815 112.46 253.724 112.49C253.689 112.446 253.654 112.395 253.619 112.351ZM258.348 112.77C259.509 112.846 260.597 112.895 261.6 112.914C260.322 113.545 259.294 113.89 258.749 113.89C258.454 113.891 258.347 113.828 258.285 113.734C258.216 113.64 258.181 113.409 258.285 112.995C258.297 112.931 258.344 112.841 258.355 112.77H258.348ZM244.176 113.143C245.266 113.542 246.298 113.896 247.254 114.197C245.851 114.441 244.768 114.482 244.244 114.329C243.962 114.246 243.88 114.154 243.848 114.047C243.813 113.94 243.837 113.707 244.042 113.337C244.077 113.28 244.135 113.204 244.176 113.143ZM253.403 113.362C253.438 113.425 253.496 113.504 253.529 113.562C253.716 113.941 253.724 114.176 253.687 114.282C253.652 114.388 253.565 114.475 253.278 114.544C252.748 114.673 251.67 114.58 250.282 114.269C251.251 114.014 252.295 113.708 253.403 113.362Z" fill="#002F2F"/>
<path d="M244.106 52.5965C242.206 52.5965 240.779 53.0798 239.826 54.0465C238.872 55.0132 238.186 56.6598 237.766 58.9865C237.766 59.0465 237.682 59.0765 237.516 59.0765C237.349 59.0765 237.266 59.0465 237.266 58.9865C237.386 57.8998 237.522 56.4798 237.676 54.7265C237.829 52.9798 237.906 51.6665 237.906 50.7865C237.906 50.6332 237.986 50.5565 238.146 50.5565C238.312 50.5565 238.396 50.6332 238.396 50.7865C238.396 51.4532 239.212 51.7865 240.846 51.7865C243.412 51.8732 246.449 51.9165 249.956 51.9165C251.736 51.9165 253.622 51.8865 255.616 51.8265L258.696 51.7865C259.782 51.7865 260.589 51.7098 261.116 51.5565C261.642 51.4098 261.982 51.1098 262.136 50.6565C262.169 50.5298 262.259 50.4665 262.406 50.4665C262.559 50.4665 262.636 50.5298 262.636 50.6565C262.542 51.5298 262.452 52.8565 262.366 54.6365C262.272 56.4165 262.226 57.8665 262.226 58.9865C262.226 59.0465 262.136 59.0765 261.956 59.0765C261.776 59.0765 261.686 59.0465 261.686 58.9865C261.592 56.6332 261.109 54.9798 260.236 54.0265C259.356 53.0732 257.906 52.5965 255.886 52.5965C254.526 52.5965 253.559 52.6565 252.986 52.7765C252.412 52.9032 252.019 53.1598 251.806 53.5465C251.599 53.9398 251.496 54.6065 251.496 55.5465V76.4265C251.496 77.3665 251.599 78.0465 251.806 78.4665C252.019 78.8865 252.429 79.1732 253.036 79.3265C253.636 79.4798 254.586 79.5565 255.886 79.5565C255.979 79.5565 256.026 79.6465 256.026 79.8265C256.026 80.0065 255.979 80.0965 255.886 80.0965C254.886 80.0965 254.086 80.0832 253.486 80.0565L249.956 80.0065L246.556 80.0565C245.949 80.0832 245.119 80.0965 244.066 80.0965C244.006 80.0965 243.976 80.0065 243.976 79.8265C243.976 79.6465 244.006 79.5565 244.066 79.5565C245.359 79.5565 246.309 79.4798 246.916 79.3265C247.522 79.1732 247.939 78.8798 248.166 78.4465C248.392 78.0065 248.506 77.3332 248.506 76.4265V55.4565C248.506 54.5165 248.399 53.8598 248.186 53.4865C247.972 53.1065 247.579 52.8632 247.006 52.7565C246.432 52.6498 245.466 52.5965 244.106 52.5965Z" fill="#002F2F"/>
<path d="M386.504 194.806H113.823C111.861 194.806 110.553 194.586 110.553 194.256C110.553 193.926 111.861 193.706 113.823 193.706H386.177C388.139 193.706 389.447 193.926 389.447 194.256C389.447 194.586 388.139 194.806 386.504 194.806Z" fill="#002F2F"/>
</g>
<defs>
<clipPath id="clip0_5_2">
<rect width="500" height="215" fill="white"/>
</clipPath>
</defs>
</svg>
